<svg width="20" height="20" viewBox="0 0 20 20" fill="none" xmlns="http://www.w3.org/2000/svg">
<g clip-path="url(#clip0_190_2865)">
<path d="M18.3565 18.9889C18.4265 19.5442 17.9661 20.0001 17.4065 20.0001C16.8469 20.0001 16.4021 19.543 16.3086 18.9913C15.8104 16.0507 13.1713 13.8009 9.99844 13.8009C6.82566 13.8009 4.18744 16.0514 3.68927 18.9913C3.59577 19.543 3.15102 20.0001 2.5914 20.0001C2.03178 20.0001 1.57143 19.5442 1.64138 18.9889C2.15313 14.9272 5.70688 11.7744 9.99945 11.7744C14.2911 11.7744 17.8448 14.9272 18.3565 18.9889Z" fill="#003A7D"/>
<path d="M9.9982 11.1156C6.93507 11.1156 4.44141 8.62093 4.44141 5.55781C4.44039 2.49367 6.93406 0 9.9982 0C13.0633 0 15.557 2.49265 15.557 5.55781C15.557 8.62296 13.0633 11.1156 9.9982 11.1156ZM9.9982 2.02655C8.05069 2.02655 6.46694 3.61029 6.46694 5.55781C6.46694 7.50532 8.05069 9.08907 9.9982 9.08907C11.9467 9.08907 13.5305 7.50532 13.5305 5.55781C13.5305 3.61029 11.9447 2.02655 9.9982 2.02655Z" fill="#003A7D"/>
</g>
<defs>
<clipPath id="clip0_190_2865">
<rect width="20" height="20" fill="white"/>
</clipPath>
</defs>
</svg>
