<svg width="20" height="20" viewBox="0 0 20 20" fill="none" xmlns="http://www.w3.org/2000/svg">
<g clip-path="url(#clip0_399_3908)">
<path d="M18.3576 18.9889C18.4276 19.5442 17.9672 20.0001 17.4076 20.0001C16.848 20.0001 16.4032 19.543 16.3097 18.9913C15.8115 16.0507 13.1724 13.8009 9.99954 13.8009C6.82676 13.8009 4.18853 16.0514 3.69037 18.9913C3.59687 19.543 3.15211 20.0001 2.5925 20.0001C2.03288 20.0001 1.57253 19.5442 1.64248 18.9889C2.15423 14.9272 5.70797 11.7744 10.0006 11.7744C14.2922 11.7744 17.8459 14.9272 18.3576 18.9889Z" fill="#666666"/>
<path d="M9.99978 11.1156C6.93666 11.1156 4.44299 8.62093 4.44299 5.55781C4.44198 2.49367 6.93565 0 9.99978 0C13.0649 0 15.5586 2.49265 15.5586 5.55781C15.5586 8.62296 13.0649 11.1156 9.99978 11.1156ZM9.99978 2.02655C8.05227 2.02655 6.46853 3.61029 6.46853 5.55781C6.46853 7.50532 8.05227 9.08907 9.99978 9.08907C11.9483 9.08907 13.5321 7.50532 13.5321 5.55781C13.5321 3.61029 11.9463 2.02655 9.99978 2.02655Z" fill="#666666"/>
</g>
<defs>
<clipPath id="clip0_399_3908">
<rect width="20" height="20" fill="white"/>
</clipPath>
</defs>
</svg>
