<svg width="15" height="15" viewBox="0 0 15 15" fill="none" xmlns="http://www.w3.org/2000/svg">
<path d="M13.3929 1.60714H11.7857V0.535724C11.7857 0.239847 11.5459 0 11.25 0C10.9541 0 10.7143 0.239847 10.7143 0.535724V1.60714H4.2857V0.535724C4.2857 0.239847 4.04585 0 3.75001 0C3.45416 0 3.21428 0.239847 3.21428 0.535724V1.60714H1.60714C0.719541 1.60714 0 2.32668 0 3.21428V13.3929C0 14.2805 0.719541 15 1.60714 15H13.3929C14.2805 15 15 14.2805 15 13.3929V3.21428C15 2.32668 14.2805 1.60714 13.3929 1.60714ZM13.9286 13.3929C13.9286 13.6887 13.6887 13.9286 13.3928 13.9286H1.60714C1.31126 13.9286 1.07142 13.6887 1.07142 13.3929V6.42857H13.9286V13.3929ZM13.9286 5.35715H1.07142V3.21428C1.07142 2.91841 1.31126 2.67856 1.60714 2.67856H3.21428V3.74998C3.21428 4.04585 3.45413 4.2857 3.75001 4.2857C4.04589 4.2857 4.28573 4.04585 4.28573 3.74998V2.67856H10.7143V3.74998C10.7143 4.04585 10.9541 4.2857 11.25 4.2857C11.5459 4.2857 11.7857 4.04585 11.7857 3.74998V2.67856H13.3929C13.6888 2.67856 13.9286 2.91841 13.9286 3.21428V5.35715H13.9286Z" fill="#003A7D"/>
<path d="M4.28683 7.5H3.21541C2.91953 7.5 2.67969 7.73985 2.67969 8.03572C2.67969 8.3316 2.91953 8.57145 3.21541 8.57145H4.28683C4.58271 8.57145 4.82255 8.3316 4.82255 8.03572C4.82255 7.73985 4.58271 7.5 4.28683 7.5Z" fill="#003A7D"/>
<path d="M8.03683 7.5H6.96541C6.66953 7.5 6.42969 7.73985 6.42969 8.03572C6.42969 8.3316 6.66953 8.57145 6.96541 8.57145H8.03683C8.33271 8.57145 8.57255 8.3316 8.57255 8.03572C8.57255 7.73985 8.33271 7.5 8.03683 7.5Z" fill="#003A7D"/>
<path d="M11.7868 7.5H10.7154C10.4195 7.5 10.1797 7.73985 10.1797 8.03572C10.1797 8.3316 10.4195 8.57145 10.7154 8.57145H11.7868C12.0827 8.57145 12.3226 8.3316 12.3226 8.03572C12.3225 7.73985 12.0827 7.5 11.7868 7.5Z" fill="#003A7D"/>
<path d="M4.28683 9.64282H3.21541C2.91953 9.64282 2.67969 9.88267 2.67969 10.1785C2.67969 10.4744 2.91953 10.7143 3.21541 10.7143H4.28683C4.58271 10.7143 4.82255 10.4744 4.82255 10.1785C4.82255 9.88267 4.58271 9.64282 4.28683 9.64282Z" fill="#003A7D"/>
<path d="M8.03683 9.64282H6.96541C6.66953 9.64282 6.42969 9.88267 6.42969 10.1785C6.42969 10.4744 6.66953 10.7143 6.96541 10.7143H8.03683C8.33271 10.7143 8.57255 10.4744 8.57255 10.1785C8.57255 9.88267 8.33271 9.64282 8.03683 9.64282Z" fill="#003A7D"/>
<path d="M11.7868 9.64282H10.7154C10.4195 9.64282 10.1797 9.88267 10.1797 10.1785C10.1797 10.4744 10.4195 10.7143 10.7154 10.7143H11.7868C12.0827 10.7143 12.3226 10.4744 12.3226 10.1785C12.3225 9.88267 12.0827 9.64282 11.7868 9.64282Z" fill="#003A7D"/>
<path d="M4.28683 11.7858H3.21541C2.91953 11.7858 2.67969 12.0256 2.67969 12.3215C2.67969 12.6174 2.91953 12.8572 3.21541 12.8572H4.28683C4.58271 12.8572 4.82255 12.6173 4.82255 12.3215C4.82255 12.0256 4.58271 11.7858 4.28683 11.7858Z" fill="#003A7D"/>
<path d="M8.03683 11.7858H6.96541C6.66953 11.7858 6.42969 12.0256 6.42969 12.3215C6.42969 12.6174 6.66953 12.8572 6.96541 12.8572H8.03683C8.33271 12.8572 8.57255 12.6174 8.57255 12.3215C8.57255 12.0256 8.33271 11.7858 8.03683 11.7858Z" fill="#003A7D"/>
<path d="M11.7868 11.7858H10.7154C10.4195 11.7858 10.1797 12.0256 10.1797 12.3215C10.1797 12.6174 10.4195 12.8572 10.7154 12.8572H11.7868C12.0827 12.8572 12.3226 12.6174 12.3226 12.3215C12.3226 12.0256 12.0827 11.7858 11.7868 11.7858Z" fill="#003A7D"/>
</svg>
