<svg width="15" height="15" viewBox="0 0 15 15" fill="none" xmlns="http://www.w3.org/2000/svg">
<path d="M12.8027 8.40075H11.3344C11.1346 8.40075 10.9411 8.43148 10.757 8.488C10.3938 7.68429 9.65221 7.13206 8.79771 7.13206H6.20229C5.34779 7.13206 4.60623 7.68429 4.24301 8.488C4.05888 8.43148 3.8654 8.40075 3.66557 8.40075H2.19727C0.985693 8.40075 0 9.51025 0 10.874V13.516C0 14.3343 0.591416 15 1.31836 15H13.6816C14.4086 15 15 14.3343 15 13.516V10.874C15 9.51025 14.0143 8.40075 12.8027 8.40075ZM4.00503 9.60539V14.0107H1.31836C1.07604 14.0107 0.878906 13.7888 0.878906 13.5161V10.874C0.878906 10.0558 1.47032 9.39009 2.19727 9.39009H3.66557C3.78486 9.39009 3.90038 9.40832 4.01036 9.44192C4.0072 9.49604 4.00503 9.55045 4.00503 9.60539ZM10.1161 14.0107H4.88394V9.60536C4.88394 8.7871 5.47535 8.1214 6.20229 8.1214H8.79771C9.52465 8.1214 10.1161 8.7871 10.1161 9.60536V14.0107ZM14.1211 13.5161C14.1211 13.7888 13.924 14.0107 13.6816 14.0107H10.995V9.60536C10.995 9.55038 10.9928 9.49597 10.9896 9.44189C11.0996 9.40832 11.2151 9.39005 11.3344 9.39005H12.8027C13.5297 9.39005 14.1211 10.0558 14.1211 10.874V13.5161Z" fill="#003A7D"/>
<path d="M2.93299 3.72964C1.85636 3.72964 0.980469 4.71555 0.980469 5.92742C0.980439 7.13928 1.85636 8.12519 2.93299 8.12519C4.00959 8.12519 4.88551 7.13928 4.88551 5.92742C4.88551 4.71555 4.00962 3.72964 2.93299 3.72964ZM2.93296 7.13588C2.34096 7.13588 1.85935 6.59378 1.85935 5.92742C1.85935 5.26105 2.34096 4.71895 2.93296 4.71895C3.52496 4.71895 4.00657 5.26105 4.00657 5.92742C4.00657 6.59378 3.52496 7.13588 2.93296 7.13588Z" fill="#003A7D"/>
<path d="M7.50697 1C6.06861 1 4.89844 2.31716 4.89844 3.93619C4.89844 5.55521 6.06861 6.87237 7.50697 6.87237C8.94533 6.87237 10.1155 5.55521 10.1155 3.93619C10.1155 2.31719 8.94533 1 7.50697 1ZM7.50697 5.88307C6.55324 5.88307 5.77734 5.00971 5.77734 3.93619C5.77734 2.86269 6.55324 1.9893 7.50697 1.9893C8.4607 1.9893 9.2366 2.86266 9.2366 3.93619C9.2366 5.00971 8.4607 5.88307 7.50697 5.88307Z" fill="#003A7D"/>
<path d="M12.0697 3.72964C10.9931 3.72964 10.1172 4.71555 10.1172 5.92742C10.1172 7.13928 10.9931 8.12519 12.0697 8.12519C13.1463 8.12519 14.0222 7.13928 14.0222 5.92742C14.0222 4.71555 13.1463 3.72964 12.0697 3.72964ZM12.0697 7.13588C11.4777 7.13588 10.9961 6.59378 10.9961 5.92742C10.9961 5.26105 11.4777 4.71895 12.0697 4.71895C12.6617 4.71895 13.1433 5.26105 13.1433 5.92742C13.1433 6.59378 12.6617 7.13588 12.0697 7.13588Z" fill="#003A7D"/>
</svg>
