<svg width="142" height="106" viewBox="0 0 142 106" fill="none" xmlns="http://www.w3.org/2000/svg">
<path fill-rule="evenodd" clip-rule="evenodd" d="M52.7988 0C75.3757 0 94.6394 14.2261 102.188 34.2338H87.843C83.2085 34.1752 80.494 36.9128 79.4747 40.7733C78.459 44.3626 80.5465 47.3041 84.1163 47.316H95.4913C96.3487 47.3648 96.7767 48.1579 96.5271 49.0452C96.2844 49.8943 95.463 50.5249 94.5862 50.5794H71.4519L76.0697 34.2324H71.1892L66.575 50.5492C65.7722 53.3426 66.7605 55.4371 70.1247 55.4863H92.8034C98.1943 55.5857 100.909 52.5041 101.645 48.0727C102.101 44.896 99.994 42.4084 96.7985 42.4084H85.5285C84.6817 42.4084 84.1112 41.6563 84.3613 40.7733C84.6204 39.8585 85.5746 39.1407 86.4535 39.1407H103.77C104.96 43.5584 105.598 48.2043 105.598 53C105.598 54.9463 105.49 56.8671 105.286 58.7591H0.311392C0.195058 57.6786 0.109972 56.5887 0.0585033 55.49H13.8046L14.4573 53.1818L0.000357819 53.1813L0 53C0 52.2441 0.0195262 51.4928 0.0508997 50.7446H15.1466L15.7995 48.4352H0.196979C0.266482 47.6178 0.353142 46.8053 0.459171 45.9989L16.4885 45.9991L17.1412 43.6906L0.812785 43.69C0.957515 42.8708 1.12178 42.0583 1.30389 41.2526L17.8305 41.2534L18.4835 38.944H1.88069C2.10203 38.1354 2.34166 37.3344 2.59946 36.5415H19.2403L19.8933 34.2324H3.4101C10.9591 14.2252 30.2225 0 52.7988 0ZM51.6838 39.1407H66.6326L68.0209 34.2338H53.3385C49.5832 34.293 47.8398 35.731 46.8696 38.9082L43.6381 50.3092C42.8584 52.505 44.1048 55.3476 47.2079 55.4898H62.0069L63.3953 50.5828H48.4499L49.3734 47.3154H64.3198L65.708 42.4084H50.7601L51.6838 39.1407ZM45.0206 34.2338H23.2754L21.8671 39.1407H30.3512L25.7612 55.4946H30.6494L35.2569 39.1407H43.6358L45.0206 34.2338ZM93.6825 86.5364C84.001 98.4164 69.2824 106 52.7988 106C36.3152 106 21.5966 98.4164 11.9151 86.5364H93.6825Z" fill="#F97D0A"/>
<path d="M27.444 66.9292H42.3935L43.782 62.022H29.0989C25.3434 62.0813 23.5998 63.5193 22.6296 66.6967L19.3982 78.0983C18.6184 80.2941 19.8649 83.1367 22.9681 83.279H37.7677L39.1559 78.3719H24.2101L27.444 66.9292ZM55.8925 83.279L58.2102 75.1058H48.1525L45.8355 83.279H40.9462L45.6485 66.6981C46.6188 63.5208 48.3623 62.0828 52.1175 62.0237H61.9195L61.9199 62.022H66.8007L66.8003 62.0237H66.8007L65.4123 66.9306H65.4098L64.4837 70.1985H64.4879L63.0995 75.1058H63.0932L60.7773 83.279H55.8925ZM59.6015 70.1985L60.5282 66.9306H50.463L49.5392 70.1985H59.6015ZM84.0419 66.93H73.4693L72.5445 70.1934H83.1369C84.0139 70.1389 84.8353 69.5083 85.0779 68.6592C85.3276 67.772 84.8994 66.9787 84.0419 66.93ZM83.5059 74.9531L85.8427 83.279H80.9545L78.6503 75.1006H71.1538L68.8363 83.279H63.9518L69.9793 62.022H85.3492C88.5451 62.022 90.6517 64.5096 90.1957 67.6866C89.5652 71.4842 87.4815 74.29 83.5059 74.9531ZM98.5312 66.9292H115.07L115.07 66.9277H119.028L119.028 66.9292H123.908L123.908 66.9277C128.875 66.9277 131.993 66.9278 136.96 66.9278L133.726 78.3704C128.759 78.3704 125.642 78.3703 120.674 78.3703L122.984 70.1983H118.101L115.862 78.0967C115.083 80.2926 116.329 83.1353 119.432 83.2776H132.071C135.826 83.2184 137.57 81.7804 138.54 78.6029L141.772 67.2015C142.552 65.0057 141.305 62.163 138.202 62.0206H125.563C125.466 62.0221 125.371 62.0247 125.277 62.0281L125.282 62.022H116.458H111.749H100.186C96.4306 62.0813 94.6871 63.5193 93.717 66.6967L90.4852 78.0983C89.7054 80.2941 90.9519 83.1367 94.0551 83.279H102.836L102.837 83.2767H104.425C109.817 83.3761 112.531 80.2943 113.267 75.8627C113.723 72.686 111.617 70.1983 108.421 70.1983H101.853L100.421 75.106H107.113C107.971 75.155 108.399 75.948 108.149 76.8355C107.907 77.6846 107.085 78.3152 106.208 78.3695H96.6574L96.6566 78.3719H95.2974L98.5312 66.9292Z" fill="#003A7D"/>
</svg>
