<svg width="20" height="20" viewBox="0 0 20 20" fill="none" xmlns="http://www.w3.org/2000/svg">
<path d="M18.2414 2.38281H1.75699C1.48641 2.38281 1.23309 2.44934 1.00391 2.55898L9.96011 11.5152L11.9675 9.58602C11.9675 9.58602 11.9677 9.58582 11.9677 9.58574C11.9677 9.58566 11.9679 9.58559 11.9679 9.58559L18.9947 2.55914C18.7655 2.44941 18.512 2.38281 18.2414 2.38281Z" fill="white"/>
<path d="M19.8236 3.38782L13.2109 10.0001L19.8233 16.6125C19.933 16.3833 19.9995 16.13 19.9995 15.8594V4.14063C19.9995 3.8702 19.9331 3.61692 19.8236 3.38782Z" fill="white"/>
<path d="M0.176172 3.38757C0.0665234 3.61675 0 3.87007 0 4.14066V15.8594C0 16.1298 0.0664453 16.3832 0.176016 16.6123L6.78863 10L0.176172 3.38757Z" fill="white"/>
<path d="M12.3824 10.8287L10.3747 12.7581C10.2602 12.8726 10.1103 12.9298 9.96043 12.9298C9.81055 12.9298 9.66059 12.8726 9.54618 12.7581L7.61664 10.8286L1.00391 17.4409C1.23313 17.5506 1.4866 17.6172 1.75727 17.6172H18.2417C18.5122 17.6172 18.7656 17.5507 18.9947 17.4411L12.3824 10.8287Z" fill="white"/>
</svg>
