<svg width="15" height="15" viewBox="0 0 15 15" fill="none" xmlns="http://www.w3.org/2000/svg">
<path d="M12.6859 3.32843H10.513V1.9707C10.513 1.35754 10.0091 0.858765 9.38963 0.858765H5.6104C4.99098 0.858765 4.48704 1.3576 4.48704 1.9707V3.32843H2.3141C1.0381 3.32843 0 4.36653 0 5.64253V12.2509C0 13.2932 0.847938 14.1412 1.89023 14.1412H13.1098C14.152 14.1412 15 13.2932 15 12.2509V5.64253C15 4.36653 13.9619 3.32843 12.6859 3.32843ZM5.36861 1.9707C5.36861 1.83936 5.47256 1.74034 5.6104 1.74034H9.3896C9.52744 1.74034 9.63139 1.83936 9.63139 1.9707V3.32843H5.36861V1.9707ZM14.1184 12.2509C14.1184 12.8071 13.6659 13.2596 13.1098 13.2596H1.89023C1.33403 13.2596 0.881571 12.8071 0.881571 12.2509V8.13361C1.01962 8.22024 1.17055 8.29043 1.33251 8.34047C1.34094 8.34305 1.34944 8.34542 1.358 8.34753L5.84867 9.44502V9.80754C5.84867 10.3767 6.31174 10.8398 6.88091 10.8398H8.11906C8.68824 10.8398 9.1513 10.3767 9.1513 9.80754V9.44502L13.642 8.34753C13.6506 8.34545 13.6591 8.34311 13.6675 8.34047C13.8294 8.29043 13.9803 8.22024 14.1184 8.13361V12.2509H14.1184ZM6.73027 9.80754V8.56383C6.73027 8.48074 6.79786 8.41316 6.88094 8.41316H8.11909C8.20217 8.41313 8.26976 8.48074 8.26976 8.56383V9.80754C8.26976 9.89062 8.20217 9.95821 8.11909 9.95821H6.88094C6.79786 9.95818 6.73027 9.8906 6.73027 9.80754ZM14.1184 6.53084C14.1184 6.97398 13.8378 7.35973 13.4187 7.49455L9.15069 8.53761C9.13671 7.9805 8.6795 7.53153 8.11909 7.53153H6.88094C6.32055 7.53153 5.86335 7.98053 5.84934 8.53761L1.58127 7.49458C1.16223 7.35973 0.881571 6.97398 0.881571 6.53084V5.64253C0.881571 4.85263 1.5242 4.21 2.3141 4.21H12.6859C13.4758 4.21 14.1184 4.85263 14.1184 5.64253V6.53084H14.1184Z" fill="#003A7D"/>
</svg>
