<svg width="40" height="40" viewBox="0 0 40 40" fill="none" xmlns="http://www.w3.org/2000/svg">
<path d="M0.451132 17.7836L0.451131 3.28766L15.0376 3.28766L15.0376 14.141C15.0376 18.8491 14.5865 23.0369 13.6842 26.7042C12.782 30.4211 11.2782 33.9398 9.17294 37.2603L7.62939e-06 37.2603C2.3559 33.8903 4.13534 30.5698 5.33835 27.2989C6.49123 24.0776 7.06767 20.9058 7.06767 17.7836L0.451132 17.7836ZM25.3383 17.7836L25.3383 3.28766L40 3.28765L40 14.141C40 18.9483 39.5489 23.1608 38.6466 26.7786C37.6942 30.4459 36.1404 33.9398 33.985 37.2603L24.8872 37.2603C27.2431 33.8903 29.0226 30.5698 30.2256 27.2989C31.4286 24.028 32.0301 20.8563 32.0301 17.7836L25.3383 17.7836Z" fill="#003A7D"/>
</svg>
