<svg width="20" height="20" viewBox="0 0 20 20" fill="none" xmlns="http://www.w3.org/2000/svg">
<path d="M19.3593 18.2168L14.5993 13.2662C15.8232 11.8113 16.4938 9.98069 16.4938 8.07499C16.4938 3.62251 12.8712 0 8.41875 0C3.96627 0 0.34375 3.62251 0.34375 8.07499C0.34375 12.5275 3.96627 16.15 8.41875 16.15C10.0903 16.15 11.6832 15.6458 13.045 14.6888L17.8412 19.677C18.0417 19.8852 18.3113 20 18.6003 20C18.8738 20 19.1332 19.8957 19.3302 19.7061C19.7487 19.3034 19.762 18.6357 19.3593 18.2168ZM8.41875 2.10652C11.7098 2.10652 14.3872 4.78391 14.3872 8.07499C14.3872 11.3661 11.7098 14.0435 8.41875 14.0435C5.12766 14.0435 2.45027 11.3661 2.45027 8.07499C2.45027 4.78391 5.12766 2.10652 8.41875 2.10652Z" fill="#003A7D"/>
</svg>
