<svg width="20" height="20" viewBox="0 0 20 20" fill="none" xmlns="http://www.w3.org/2000/svg">
<path d="M19.3612 18.2168L14.6011 13.2662C15.825 11.8113 16.4956 9.98069 16.4956 8.07499C16.4956 3.62251 12.8731 0 8.42058 0C3.9681 0 0.345581 3.62251 0.345581 8.07499C0.345581 12.5275 3.9681 16.15 8.42058 16.15C10.0921 16.15 11.685 15.6458 13.0469 14.6888L17.8431 19.677C18.0435 19.8852 18.3132 20 18.6021 20C18.8756 20 19.1351 19.8957 19.332 19.7061C19.7505 19.3034 19.7639 18.6357 19.3612 18.2168ZM8.42058 2.10652C11.7117 2.10652 14.3891 4.78391 14.3891 8.07499C14.3891 11.3661 11.7117 14.0435 8.42058 14.0435C5.12949 14.0435 2.4521 11.3661 2.4521 8.07499C2.4521 4.78391 5.12949 2.10652 8.42058 2.10652Z" fill="#666666"/>
</svg>
