<svg width="15" height="15" viewBox="0 0 15 15" fill="none" xmlns="http://www.w3.org/2000/svg">
<path d="M7.49865 5.5683C6.37019 5.5683 5.45312 6.48536 5.45312 7.61382C5.45312 8.74228 6.37019 9.65935 7.49865 9.65935C8.62711 9.65935 9.54417 8.74228 9.54417 7.61382C9.54417 6.48536 8.62707 5.5683 7.49865 5.5683Z" fill="white"/>
<path d="M7.50027 2.5C4.09105 2.5 1.1796 4.62051 0 7.61381C1.1796 10.6071 4.09105 12.7276 7.50027 12.7276C10.9129 12.7276 13.8209 10.6071 15.0005 7.61381C13.8209 4.62051 10.9129 2.5 7.50027 2.5ZM7.50027 11.023C5.61838 11.023 4.09105 9.49566 4.09105 7.61378C4.09105 5.7319 5.61838 4.20459 7.50027 4.20459C9.38215 4.20459 10.9095 5.73193 10.9095 7.61381C10.9095 9.49569 9.38215 11.023 7.50027 11.023Z" fill="white"/>
</svg>
