<svg width="16" height="16" viewBox="0 0 16 16" fill="none" xmlns="http://www.w3.org/2000/svg">
<path d="M13 4.95524C13 5.58835 12.8588 6.15618 12.5765 6.65874C12.3006 7.16131 11.7809 7.68998 11.0173 8.24476L10.2859 8.78322C9.43888 9.39674 8.99615 10.0788 8.95765 10.8294H6.38787C6.41354 10.3855 6.50337 9.97436 6.65736 9.5958C6.81136 9.21725 7.03272 8.86154 7.32146 8.52867C7.61662 8.1958 7.97594 7.87925 8.39942 7.57902C8.86141 7.25268 9.22714 6.95897 9.49663 6.6979C9.77254 6.4303 9.97145 6.16923 10.0934 5.91469C10.2153 5.65361 10.2762 5.37296 10.2762 5.07273C10.2762 4.49837 10.0902 4.04476 9.718 3.71189C9.35226 3.37902 8.82932 3.21259 8.14918 3.21259C7.50112 3.21259 6.95573 3.40513 6.51299 3.79021C6.07668 4.17529 5.82002 4.68438 5.74302 5.31748L3 5.2C3.17324 3.87506 3.70902 2.84382 4.60731 2.10629C5.50561 1.36876 6.6734 1 8.11068 1C9.63138 1 10.8248 1.35245 11.691 2.05734C12.5637 2.75571 13 3.72168 13 4.95524ZM9.0924 12.3566V15H6.31088V12.3566H9.0924Z" fill="white"/>
</svg>
