<svg width="492" height="265" viewBox="0 0 492 265" fill="none" xmlns="http://www.w3.org/2000/svg">
<rect width="492" height="265" rx="62" fill="#F3F3F3"/>
<circle cx="375.135" cy="133" r="47.8651" fill="#003A7D"/>
<path d="M386.605 147.551V159.592H380.473V147.551H356.52V142.267L379.787 106.408H386.605V142.191H393.748V147.551H386.605ZM362.508 142.191H380.473V120.978C380.473 119.821 380.473 118.676 380.473 117.543C380.497 116.386 380.545 115.228 380.617 114.071C380.064 115.178 379.583 116.084 379.174 116.788C378.765 117.468 378.392 118.059 378.056 118.562L362.508 142.191Z" fill="white"/>
<circle cx="115.865" cy="133" r="47.8651" fill="#003A7D"/>
<path d="M127.336 147.551V159.592H121.203V147.551H97.25V142.267L120.518 106.408H127.336V142.191H134.478V147.551H127.336ZM103.238 142.191H121.203V120.978C121.203 119.821 121.203 118.676 121.203 117.543C121.227 116.386 121.275 115.228 121.347 114.071C120.794 115.178 120.313 116.084 119.905 116.788C119.496 117.468 119.123 118.059 118.786 118.562L103.238 142.191Z" fill="white"/>
<path d="M343.346 133C343.346 186.605 299.891 230.06 246.286 230.06C192.682 230.06 149.227 186.605 149.227 133C149.227 79.3953 192.682 35.9402 246.286 35.9402C299.891 35.9402 343.346 79.3953 343.346 133Z" fill="#F3F3F3"/>
<path fill-rule="evenodd" clip-rule="evenodd" d="M246.286 203.468C285.205 203.468 316.755 171.918 316.755 133C316.755 94.0815 285.205 62.5319 246.286 62.5319C207.368 62.5319 175.818 94.0815 175.818 133C175.818 171.918 207.368 203.468 246.286 203.468ZM246.286 230.06C299.891 230.06 343.346 186.605 343.346 133C343.346 79.3953 299.891 35.9402 246.286 35.9402C192.682 35.9402 149.227 79.3953 149.227 133C149.227 186.605 192.682 230.06 246.286 230.06Z" fill="#F97D0A"/>
<path d="M216.261 132.879C216.261 135.838 215.665 138.427 214.472 140.646C213.293 142.851 211.626 144.566 209.469 145.79C207.325 147.014 204.806 147.625 201.912 147.625C198.951 147.625 196.406 147.034 194.276 145.85C192.146 144.653 190.511 142.952 189.372 140.746C188.233 138.541 187.664 135.918 187.664 132.879C187.664 129.84 188.227 127.237 189.352 125.072C190.491 122.907 192.125 121.253 194.256 120.109C196.399 118.953 198.965 118.375 201.953 118.375C204.954 118.375 207.519 118.96 209.649 120.13C211.78 121.286 213.414 122.947 214.553 125.112C215.692 127.278 216.261 129.866 216.261 132.879ZM210.212 132.879C210.212 129.813 209.489 127.412 208.042 125.677C206.595 123.929 204.565 123.055 201.953 123.055C199.3 123.055 197.25 123.922 195.803 125.657C194.356 127.378 193.633 129.786 193.633 132.879C193.633 134.95 193.968 136.739 194.637 138.245C195.307 139.751 196.259 140.915 197.491 141.735C198.737 142.542 200.211 142.945 201.912 142.945C204.565 142.945 206.608 142.071 208.042 140.323C209.489 138.574 210.212 136.093 210.212 132.879Z" fill="#F97D0A"/>
<path d="M248.294 132.879C248.294 135.838 247.698 138.427 246.506 140.646C245.327 142.851 243.659 144.566 241.502 145.79C239.358 147.014 236.84 147.625 233.946 147.625C230.985 147.625 228.439 147.034 226.309 145.85C224.179 144.653 222.544 142.952 221.406 140.746C220.267 138.541 219.697 135.918 219.697 132.879C219.697 129.84 220.26 127.237 221.386 125.072C222.524 122.907 224.159 121.253 226.289 120.109C228.433 118.953 230.998 118.375 233.986 118.375C236.987 118.375 239.553 118.96 241.683 120.13C243.813 121.286 245.448 122.947 246.586 125.112C247.725 127.278 248.294 129.866 248.294 132.879ZM242.245 132.879C242.245 129.813 241.522 127.412 240.075 125.677C238.628 123.929 236.598 123.055 233.986 123.055C231.333 123.055 229.283 123.922 227.836 125.657C226.39 127.378 225.666 129.786 225.666 132.879C225.666 134.95 226.001 136.739 226.671 138.245C227.341 139.751 228.292 140.915 229.525 141.735C230.771 142.542 232.244 142.945 233.946 142.945C236.598 142.945 238.642 142.071 240.075 140.323C241.522 138.574 242.245 136.093 242.245 132.879Z" fill="#F97D0A"/>
<path d="M276.088 127.795C276.088 129.638 275.666 131.272 274.822 132.697C273.991 134.11 272.805 135.219 271.264 136.026C269.724 136.819 267.888 137.216 265.758 137.216H258.724V147.222H252.796V118.798H265.517C268.907 118.798 271.512 119.585 273.334 121.158C275.17 122.718 276.088 124.931 276.088 127.795ZM270.119 127.896C270.119 124.911 268.364 123.418 264.854 123.418H258.724V132.637H265.015C266.649 132.637 267.908 132.233 268.793 131.427C269.677 130.606 270.119 129.429 270.119 127.896Z" fill="#F97D0A"/>
<path d="M303.338 139.032C303.338 141.816 302.307 143.947 300.243 145.427C298.193 146.892 295.179 147.625 291.2 147.625C284.032 147.625 279.859 145.023 278.68 139.818L284.407 138.87C284.796 140.377 285.553 141.473 286.678 142.159C287.804 142.831 289.365 143.167 291.361 143.167C293.437 143.167 294.991 142.851 296.023 142.219C297.055 141.587 297.57 140.639 297.57 139.375C297.57 138.568 297.336 137.902 296.867 137.378C296.398 136.853 295.728 136.416 294.858 136.066C294.429 135.891 293.799 135.703 292.968 135.501C292.138 135.286 291.106 135.051 289.874 134.795C288.453 134.459 287.342 134.177 286.538 133.948C285.734 133.706 285.091 133.477 284.608 133.262C284.126 133.034 283.657 132.785 283.202 132.516C282.197 131.911 281.413 131.104 280.85 130.095C280.288 129.086 280.006 127.829 280.006 126.323C280.006 123.754 280.964 121.791 282.88 120.432C284.809 119.06 287.609 118.375 291.28 118.375C294.791 118.375 297.423 118.926 299.178 120.029C300.947 121.132 302.085 122.954 302.595 125.496L296.847 126.282C296.552 125.059 295.949 124.137 295.038 123.519C294.141 122.9 292.848 122.591 291.16 122.591C289.365 122.591 288.018 122.873 287.12 123.438C286.223 124.003 285.774 124.85 285.774 125.98C285.774 126.719 285.962 127.325 286.337 127.795C286.725 128.266 287.295 128.67 288.045 129.006C288.755 129.329 290.276 129.739 292.607 130.236C293.96 130.532 295.125 130.815 296.103 131.084C297.081 131.339 297.865 131.588 298.455 131.83C299.044 132.085 299.567 132.354 300.022 132.637C300.491 132.919 300.893 133.222 301.228 133.545C301.911 134.204 302.434 134.99 302.796 135.905C303.157 136.806 303.338 137.848 303.338 139.032Z" fill="#F97D0A"/>
</svg>
