<svg width="50" height="50" viewBox="0 0 50 50" fill="none" xmlns="http://www.w3.org/2000/svg">
<path d="M42.6777 7.32227C37.9558 2.60049 31.6777 0 25 0C18.3223 0 12.0442 2.60049 7.32227 7.32227C2.60049 12.0441 0 18.3223 0 25C0 29.3285 1.12393 33.594 3.25029 37.3354C3.4502 37.6871 3.89727 37.8101 4.24902 37.6102C4.60068 37.4103 4.72373 36.9632 4.52383 36.6114C2.52266 33.0905 1.46484 29.0752 1.46484 25C1.46484 12.0227 12.0227 1.46484 25 1.46484C37.9773 1.46484 48.5352 12.0227 48.5352 25C48.5352 37.9773 37.9773 48.5352 25 48.5352C17.6481 48.5352 10.8524 45.1925 6.35547 39.3645C6.1083 39.0441 5.64834 38.9849 5.32812 39.2321C5.00781 39.4792 4.94853 39.9392 5.1957 40.2595C7.48223 43.2228 10.4535 45.6749 13.7883 47.3509C17.2858 49.1087 21.0581 50 25 50C31.6777 50 37.9558 47.3995 42.6777 42.6777C47.3995 37.9559 50 31.6777 50 25C50 18.3223 47.3995 12.0441 42.6777 7.32227Z" fill="#003A7D"/>
<path d="M14.2245 6.69208C11.0963 8.5372 8.475 11.1701 6.64414 14.3063C4.75713 17.5388 3.75977 21.2364 3.75977 24.9999C3.75977 30.6734 5.96914 36.0072 9.98086 40.019C13.9927 44.0307 19.3266 46.2401 25 46.2401C29.4757 46.2401 33.7564 44.8643 37.3796 42.2614C37.7081 42.0255 37.7831 41.5678 37.5471 41.2392C37.311 40.9107 36.8534 40.8356 36.5249 41.0718C33.1523 43.4946 29.1671 44.7753 25 44.7753C14.0958 44.7753 5.22461 35.9041 5.22461 24.9999C5.22461 18.0305 8.9583 11.4988 14.9687 7.9538C15.3171 7.74833 15.4329 7.29931 15.2274 6.95077C15.0219 6.60243 14.5727 6.48642 14.2245 6.69208Z" fill="#003A7D"/>
<path d="M39.5427 40.192C39.7308 40.192 39.919 40.1199 40.062 39.976C44.0461 35.9691 46.2403 30.6506 46.2403 25C46.2403 19.3265 44.0309 13.9927 40.0192 9.98086C36.0073 5.96914 30.6735 3.75977 25 3.75977C22.3818 3.75977 19.8253 4.23066 17.4014 5.15947C17.0236 5.3042 16.8348 5.72773 16.9795 6.10557C17.1242 6.4834 17.5478 6.67246 17.9255 6.52734C20.1815 5.66289 22.5616 5.22461 25 5.22461C35.9042 5.22461 44.7754 14.0958 44.7754 25C44.7754 30.2608 42.7326 35.2127 39.0234 38.9432C38.7382 39.2301 38.7395 39.6937 39.0263 39.9789C39.1693 40.1211 39.356 40.192 39.5427 40.192Z" fill="#003A7D"/>
<path d="M31.4364 31.0363C31.5358 31.0821 31.64 31.1038 31.7428 31.1038C32.0196 31.1038 32.2847 30.946 32.4083 30.678L37.3644 19.9358C37.5338 19.5685 37.3734 19.1334 37.0062 18.9639C36.639 18.7947 36.2037 18.9549 36.0343 19.3222L31.0782 30.0644C30.9088 30.4316 31.0691 30.8668 31.4364 31.0363Z" fill="#003A7D"/>
<path d="M32.6116 21.5119C32.6116 20.0697 31.5561 18.8965 30.2588 18.8965C28.9614 18.8965 27.9059 20.0698 27.9059 21.5119C27.9059 22.954 28.9614 24.1272 30.2588 24.1272C31.5561 24.1272 32.6116 22.9541 32.6116 21.5119ZM30.2588 22.6624C29.7774 22.6624 29.3708 22.1354 29.3708 21.5119C29.3708 20.8882 29.7774 20.3613 30.2588 20.3613C30.7401 20.3613 31.1468 20.8883 31.1468 21.5119C31.1468 22.1355 30.7401 22.6624 30.2588 22.6624Z" fill="#003A7D"/>
<path d="M38.1006 31.1034C39.3979 31.1034 40.4534 29.9301 40.4534 28.488C40.4534 27.0459 39.3979 25.8726 38.1006 25.8726C36.8032 25.8726 35.7477 27.0459 35.7477 28.488C35.7477 29.9301 36.8032 31.1034 38.1006 31.1034ZM38.1006 27.3374C38.5819 27.3374 38.9886 27.8644 38.9886 28.488C38.9886 29.1116 38.5819 29.6386 38.1006 29.6386C37.6192 29.6386 37.2126 29.1116 37.2126 28.488C37.2126 27.8644 37.6192 27.3374 38.1006 27.3374Z" fill="#003A7D"/>
<path d="M16.3145 18.8965H12.3396C11.9813 18.8965 11.6757 19.1557 11.6171 19.5092L10.8297 24.2618C10.7845 24.5345 10.8976 24.809 11.1206 24.9721C11.3437 25.1355 11.6405 25.1587 11.8867 25.033C11.8938 25.0294 11.9303 25.0112 11.99 24.9844C12.4482 24.7781 12.8431 24.6322 13.7545 24.6322C15.0508 24.6056 16.3543 25.8097 16.2542 27.2696C16.1866 28.5714 15.1114 29.6118 13.8065 29.6382C12.5387 29.6628 11.4504 28.7383 11.2756 27.4855C11.2196 27.0849 10.8501 26.8056 10.4489 26.8613C10.0482 26.9172 9.76885 27.2873 9.82471 27.688C10.0983 29.6484 11.7803 31.1036 13.7551 31.1035C15.812 31.1179 17.6111 29.4293 17.7171 27.3456C17.8816 25.2286 16.0058 23.113 13.7545 23.1675C13.2403 23.1675 12.8342 23.2071 12.4769 23.2814L12.9606 20.3614H16.3144C16.7188 20.3614 17.0468 20.0336 17.0468 19.629C17.0468 19.2244 16.7189 18.8965 16.3145 18.8965Z" fill="#003A7D"/>
<path d="M19.1346 22.6135V27.3866C19.1346 29.4361 20.8021 31.1036 22.8516 31.1036C24.9011 31.1036 26.5686 29.4362 26.5686 27.3866V22.6135C26.5686 20.564 24.9011 18.8965 22.8516 18.8965C20.8021 18.8965 19.1346 20.5639 19.1346 22.6135ZM25.1037 22.6135V27.3866C25.1037 28.6284 24.0934 29.6388 22.8516 29.6388C21.6098 29.6388 20.5994 28.6284 20.5994 27.3866V22.6135C20.5994 21.3717 21.6098 20.3613 22.8516 20.3613C24.0934 20.3613 25.1037 21.3717 25.1037 22.6135Z" fill="#003A7D"/>
</svg>
