<svg width="50" height="50" viewBox="0 0 50 50" fill="none" xmlns="http://www.w3.org/2000/svg">
<path d="M41.6667 12.5H35V2.5C35 1.08317 33.9168 0 32.5 0H2.5C1.08317 0 0 1.08317 0 2.5V47.5C0 48.9168 1.08317 50 2.5 50H27.8333L35 42.8333V37.5H33.3333V41.6667H29.1667C27.7498 41.6667 26.6667 42.7498 26.6667 44.1667V48.3333H2.5C1.99992 48.3333 1.66667 48.0001 1.66667 47.5V2.5C1.66667 1.99992 1.99992 1.66667 2.5 1.66667H32.5C33.0001 1.66667 33.3333 1.99992 33.3333 2.5V12.5H26.6667C25.2498 12.5 24.1667 13.5832 24.1667 15V30C24.1667 31.4168 25.2498 32.5 26.6667 32.5H31.3334L34.1667 35.3333L36.9999 32.5H41.6667C43.0835 32.5 44.1667 31.4168 44.1667 30V15C44.1667 13.5832 43.0835 12.5 41.6667 12.5ZM29.1667 43.3333H32.1667L28.3333 47.1667V44.1667C28.3333 43.6666 28.6666 43.3333 29.1667 43.3333ZM42.5 30C42.5 30.5001 42.1668 30.8333 41.6667 30.8333H36.3334L34.1667 33.0001L31.9999 30.8333H26.6667C26.1666 30.8333 25.8333 30.5001 25.8333 30V15C25.8333 14.4999 26.1666 14.1667 26.6667 14.1667H41.6667C42.1668 14.1667 42.5 14.4999 42.5 15V30Z" fill="#003A7D"/>
<path d="M12.5 4.16675H22.5V5.83342H12.5V4.16675Z" fill="#003A7D"/>
<path d="M4.16669 8.33325H6.66668V9.99992H4.16669V8.33325Z" fill="#003A7D"/>
<path d="M8.33331 8.33325H30.8333V9.99992H8.33331V8.33325Z" fill="#003A7D"/>
<path d="M4.16669 13.3333H6.66668V14.9999H4.16669V13.3333Z" fill="#003A7D"/>
<path d="M8.33331 13.3333H21.6666V14.9999H8.33331V13.3333Z" fill="#003A7D"/>
<path d="M4.16669 18.3333H6.66668V19.9999H4.16669V18.3333Z" fill="#003A7D"/>
<path d="M8.33331 18.3333H21.6666V19.9999H8.33331V18.3333Z" fill="#003A7D"/>
<path d="M4.16669 23.3333H6.66668V24.9999H4.16669V23.3333Z" fill="#003A7D"/>
<path d="M8.33331 23.3333H21.6666V24.9999H8.33331V23.3333Z" fill="#003A7D"/>
<path d="M4.16669 28.3333H6.66668V29.9999H4.16669V28.3333Z" fill="#003A7D"/>
<path d="M8.33331 28.3333H21.6666V29.9999H8.33331V28.3333Z" fill="#003A7D"/>
<path d="M4.16669 33.3333H6.66668V34.9999H4.16669V33.3333Z" fill="#003A7D"/>
<path d="M8.33331 33.3333H21.6666V34.9999H8.33331V33.3333Z" fill="#003A7D"/>
<path d="M4.16669 38.3333H6.66668V39.9999H4.16669V38.3333Z" fill="#003A7D"/>
<path d="M8.33331 38.3333H30.8333V39.9999H8.33331V38.3333Z" fill="#003A7D"/>
<path d="M4.16669 43.3333H6.66668V44.9999H4.16669V43.3333Z" fill="#003A7D"/>
<path d="M8.33331 43.3333H24.1666V44.9999H8.33331V43.3333Z" fill="#003A7D"/>
<path d="M37.5 21.0001V19.1666C37.5 17.3331 36.0002 15.8333 34.1667 15.8333C32.3332 15.8333 30.8334 17.3331 30.8334 19.1666H32.5C32.5 18.2498 33.2499 17.4999 34.1667 17.4999C35.0834 17.4999 35.8334 18.2498 35.8334 19.1666V20.8332H31.6667C30.2499 20.8332 29.1667 21.9164 29.1667 23.3332V26.6666C29.1667 28.0834 30.2499 29.1666 31.6667 29.1666H36.6667C38.0835 29.1666 39.1667 28.0834 39.1667 26.6666V23.3332C39.1667 22.2501 38.5002 21.3333 37.5 21.0001ZM37.5 26.6666C37.5 27.1667 37.1668 27.4999 36.6667 27.4999H31.6667C31.1666 27.4999 30.8334 27.1667 30.8334 26.6666V23.3332C30.8334 22.8332 31.1666 22.4999 31.6667 22.4999H36.6667C37.1668 22.4999 37.5 22.8332 37.5 23.3332V26.6666Z" fill="#003A7D"/>
</svg>
