<svg width="495" height="221" viewBox="0 0 495 221" fill="none" xmlns="http://www.w3.org/2000/svg">
    <mask id="mask0_215_3529" style="mask-type:alpha" maskUnits="userSpaceOnUse" x="0" y="0" width="495" height="221">
        <rect width="495" height="221" fill="#F97D0A"/>
    </mask>
    <g mask="url(#mask0_215_3529)">
        <rect width="495" height="221" fill="#F97D0A"/>
        <path d="M500 58.4322C500 70.5063 497.247 81.3357 491.742 90.9203C486.362 100.505 476.227 110.587 461.338 121.168L447.074 131.437C430.558 143.138 421.925 156.145 421.174 170.46H371.064C371.564 161.996 373.316 154.154 376.319 146.934C379.321 139.715 383.638 132.931 389.269 126.583C395.024 120.234 402.031 114.197 410.289 108.471C419.297 102.248 426.429 96.6461 431.684 91.6671C437.064 86.5636 440.943 81.5846 443.32 76.7301C445.698 71.751 446.886 66.3986 446.886 60.6727C446.886 49.7189 443.258 41.0678 436.001 34.7196C428.869 28.3713 418.672 25.1972 405.409 25.1972C392.772 25.1972 382.137 28.8692 373.503 36.2133C364.995 43.5573 359.99 53.2664 358.489 65.3406L305 63.1C308.378 37.8315 318.826 18.1643 336.343 4.0986C353.859 -9.96713 376.631 -17 404.658 -17C434.312 -17 457.584 -10.2783 474.475 3.16504C491.492 16.4839 500 34.9063 500 58.4322ZM423.802 199.587V250H369.562V199.587H423.802Z" fill="white" fill-opacity="0.32"/>
    </g>
    <path d="M73.3594 63.8906C73.3594 66.2448 72.9115 68.276 72.0156 69.9844C71.1302 71.6927 69.8698 73.0104 68.2344 73.9375C66.599 74.8542 64.6615 75.3125 62.4219 75.3125C60.1719 75.3125 58.2292 74.8542 56.5938 73.9375C54.9688 73.0208 53.7135 71.7083 52.8281 70C51.9531 68.2917 51.5156 66.2552 51.5156 63.8906C51.5156 61.5365 51.9479 59.526 52.8125 57.8594C53.6875 56.1823 54.9375 54.8958 56.5625 54C58.1979 53.1042 60.1615 52.6562 62.4531 52.6562C64.7031 52.6562 66.6406 53.099 68.2656 53.9844C69.901 54.8698 71.1562 56.151 72.0312 57.8281C72.9167 59.4948 73.3594 61.5156 73.3594 63.8906ZM70.3125 63.8906C70.3125 61.151 69.625 59 68.25 57.4375C66.8854 55.875 64.9531 55.0938 62.4531 55.0938C59.9323 55.0938 57.9844 55.8646 56.6094 57.4062C55.2344 58.9479 54.5469 61.1094 54.5469 63.8906C54.5469 65.724 54.8594 67.3177 55.4844 68.6719C56.1094 70.0156 57.0104 71.0573 58.1875 71.7969C59.3646 72.526 60.776 72.8906 62.4219 72.8906C64.9635 72.8906 66.9115 72.1094 68.2656 70.5469C69.6302 68.974 70.3125 66.7552 70.3125 63.8906ZM87.4062 72.8594C90.4896 72.8594 92.8073 71.3333 94.3594 68.2812L96.7969 69.5C95.8906 71.3958 94.6146 72.8385 92.9688 73.8281C91.3333 74.8177 89.4323 75.3125 87.2656 75.3125C85.0365 75.3125 83.1198 74.849 81.5156 73.9219C79.9115 72.9948 78.6771 71.6771 77.8125 69.9688C76.9583 68.25 76.5312 66.224 76.5312 63.8906C76.5312 61.5469 76.9583 59.5365 77.8125 57.8594C78.6667 56.1823 79.8958 54.8958 81.5 54C83.1042 53.1042 85.0208 52.6562 87.25 52.6562C89.5938 52.6562 91.5521 53.1146 93.125 54.0312C94.6979 54.9479 95.8542 56.3073 96.5938 58.1094L93.7656 59.0469C93.2552 57.7656 92.4323 56.7865 91.2969 56.1094C90.1719 55.4323 88.8333 55.0938 87.2812 55.0938C84.8438 55.0938 82.9479 55.8802 81.5938 57.4531C80.2396 59.0156 79.5625 61.1615 79.5625 63.8906C79.5625 65.6823 79.8802 67.2552 80.5156 68.6094C81.1615 69.9531 82.0677 71 83.2344 71.75C84.4115 72.4896 85.8021 72.8594 87.4062 72.8594ZM108.219 55.4219V75H105.25V55.4219H97.6875V52.9844H115.781V55.4219H108.219ZM121.156 68.5625L118.625 75H115.531L124.516 52.9844H127.906L136.75 75H133.703L131.188 68.5625H121.156ZM126.172 55.2344C125.995 55.8177 125.781 56.4688 125.531 57.1875C125.292 57.8958 125.068 58.5208 124.859 59.0625L122.062 66.2344H130.297L127.469 58.9688C127.323 58.6042 127.13 58.0885 126.891 57.4219C126.651 56.7552 126.411 56.026 126.172 55.2344ZM144.188 70.1875C143.688 72.0104 143.062 73.3125 142.312 74.0938C141.562 74.8646 140.51 75.25 139.156 75.25C138.542 75.25 138.094 75.1979 137.812 75.0938V72.7188C138 72.7917 138.292 72.8281 138.688 72.8281C139.24 72.8281 139.688 72.6615 140.031 72.3281C140.385 71.9844 140.714 71.4167 141.016 70.625C141.161 70.2292 141.312 69.7396 141.469 69.1562C141.625 68.5729 141.776 67.8958 141.922 67.125C142.078 66.3542 142.229 65.5 142.375 64.5625C142.521 63.6146 142.672 62.5677 142.828 61.4219C142.984 60.2656 143.151 58.9896 143.328 57.5938C143.516 56.1979 143.719 54.6615 143.938 52.9844H155.922V75H153.016V55.4844H146.484L145.719 61.2344C145.188 65.3385 144.677 68.3229 144.188 70.1875ZM176.344 56.4062L164.75 75H161.156V52.9844H163.844V67.4219C163.844 68.0156 163.833 68.6719 163.812 69.3906C163.792 70.099 163.76 70.8698 163.719 71.7031L175.438 52.9844H178.906V75H176.25V60.375C176.25 59.7396 176.255 59.0938 176.266 58.4375C176.286 57.7708 176.312 57.0938 176.344 56.4062ZM194.031 72.8594C197.115 72.8594 199.432 71.3333 200.984 68.2812L203.422 69.5C202.516 71.3958 201.24 72.8385 199.594 73.8281C197.958 74.8177 196.057 75.3125 193.891 75.3125C191.661 75.3125 189.745 74.849 188.141 73.9219C186.536 72.9948 185.302 71.6771 184.438 69.9688C183.583 68.25 183.156 66.224 183.156 63.8906C183.156 61.5469 183.583 59.5365 184.438 57.8594C185.292 56.1823 186.521 54.8958 188.125 54C189.729 53.1042 191.646 52.6562 193.875 52.6562C196.219 52.6562 198.177 53.1146 199.75 54.0312C201.323 54.9479 202.479 56.3073 203.219 58.1094L200.391 59.0469C199.88 57.7656 199.057 56.7865 197.922 56.1094C196.797 55.4323 195.458 55.0938 193.906 55.0938C191.469 55.0938 189.573 55.8802 188.219 57.4531C186.865 59.0156 186.188 61.1615 186.188 63.8906C186.188 65.6823 186.505 67.2552 187.141 68.6094C187.786 69.9531 188.693 71 189.859 71.75C191.036 72.4896 192.427 72.8594 194.031 72.8594ZM224 68.5469C224 69.8385 223.698 70.9688 223.094 71.9375C222.49 72.9062 221.62 73.6615 220.484 74.2031C219.359 74.7344 218.005 75 216.422 75H207.281V52.9844H210.266V62.2969H216.234C218.693 62.2969 220.599 62.8438 221.953 63.9375C223.318 65.0312 224 66.5677 224 68.5469ZM221 68.6406C221 67.3802 220.573 66.4115 219.719 65.7344C218.865 65.0469 217.583 64.7031 215.875 64.7031H210.266V72.6406H216C219.333 72.6406 221 71.3073 221 68.6406Z" fill="white"/>
    <path d="M80.7129 113.308C80.7129 116.368 79.598 118.752 77.3682 120.461C75.1383 122.154 72.0378 123 68.0664 123H54.1016V88.6006H66.6016C70.638 88.6006 73.6654 89.3005 75.6836 90.7002C77.7018 92.0837 78.7109 94.167 78.7109 96.9502C78.7109 98.9847 78.1413 100.694 77.002 102.077C75.8626 103.461 74.2513 104.388 72.168 104.86C74.9023 105.186 77.0101 106.105 78.4912 107.619C79.9723 109.117 80.7129 111.013 80.7129 113.308ZM74.0234 97.5117C74.0234 95.6562 73.3887 94.3298 72.1191 93.5322C70.8496 92.7347 69.0104 92.3359 66.6016 92.3359H58.7646V103.225H66.6016C69.0918 103.225 70.9473 102.761 72.168 101.833C73.4049 100.889 74.0234 99.4486 74.0234 97.5117ZM76.001 112.941C76.001 108.889 73.1527 106.862 67.4561 106.862H58.7646V119.265H67.8223C70.6706 119.265 72.7458 118.736 74.0479 117.678C75.3499 116.62 76.001 115.041 76.001 112.941ZM118.188 105.642C118.188 109.32 117.489 112.494 116.089 115.163C114.705 117.832 112.736 119.891 110.181 121.34C107.625 122.772 104.598 123.488 101.099 123.488C97.583 123.488 94.5475 122.772 91.9922 121.34C89.4531 119.908 87.4919 117.857 86.1084 115.188C84.7412 112.518 84.0576 109.336 84.0576 105.642C84.0576 101.963 84.7331 98.8219 86.084 96.2178C87.4512 93.5973 89.4043 91.5872 91.9434 90.1875C94.4987 88.7878 97.5667 88.0879 101.147 88.0879C104.663 88.0879 107.69 88.7796 110.229 90.1631C112.785 91.5465 114.746 93.5485 116.113 96.1689C117.497 98.7731 118.188 101.931 118.188 105.642ZM113.428 105.642C113.428 101.361 112.354 98 110.205 95.5586C108.073 93.1172 105.054 91.8965 101.147 91.8965C97.2087 91.8965 94.165 93.1009 92.0166 95.5098C89.8682 97.9186 88.7939 101.296 88.7939 105.642C88.7939 108.506 89.2822 110.996 90.2588 113.112C91.2354 115.212 92.6432 116.84 94.4824 117.995C96.3216 119.134 98.527 119.704 101.099 119.704C105.07 119.704 108.114 118.483 110.229 116.042C112.362 113.584 113.428 110.118 113.428 105.642ZM129.321 92.5312V123H124.658V88.6006H152.588V123H147.925V92.5312H129.321ZM187.256 98.9521C187.256 101.117 186.776 102.997 185.815 104.592C184.855 106.187 183.488 107.424 181.714 108.303C179.956 109.165 177.856 109.597 175.415 109.597H165.308V123H160.645V88.6006H175.122C178.979 88.6006 181.966 89.5039 184.082 91.3105C186.198 93.1172 187.256 95.6644 187.256 98.9521ZM182.568 99.001C182.568 94.5576 179.899 92.3359 174.561 92.3359H165.308V105.91H174.756C177.36 105.91 179.313 105.34 180.615 104.201C181.917 103.046 182.568 101.312 182.568 99.001ZM225.269 105.642C225.269 109.32 224.569 112.494 223.169 115.163C221.785 117.832 219.816 119.891 217.261 121.34C214.705 122.772 211.678 123.488 208.179 123.488C204.663 123.488 201.628 122.772 199.072 121.34C196.533 119.908 194.572 117.857 193.188 115.188C191.821 112.518 191.138 109.336 191.138 105.642C191.138 101.963 191.813 98.8219 193.164 96.2178C194.531 93.5973 196.484 91.5872 199.023 90.1875C201.579 88.7878 204.647 88.0879 208.228 88.0879C211.743 88.0879 214.771 88.7796 217.31 90.1631C219.865 91.5465 221.826 93.5485 223.193 96.1689C224.577 98.7731 225.269 101.931 225.269 105.642ZM220.508 105.642C220.508 101.361 219.434 98 217.285 95.5586C215.153 93.1172 212.134 91.8965 208.228 91.8965C204.289 91.8965 201.245 93.1009 199.097 95.5098C196.948 97.9186 195.874 101.296 195.874 105.642C195.874 108.506 196.362 110.996 197.339 113.112C198.315 115.212 199.723 116.84 201.562 117.995C203.402 119.134 205.607 119.704 208.179 119.704C212.15 119.704 215.194 118.483 217.31 116.042C219.442 113.584 220.508 110.118 220.508 105.642ZM247.217 119.655C252.035 119.655 255.656 117.271 258.081 112.502L261.89 114.406C260.474 117.368 258.48 119.623 255.908 121.169C253.353 122.715 250.382 123.488 246.997 123.488C243.514 123.488 240.519 122.764 238.013 121.315C235.506 119.867 233.577 117.808 232.227 115.139C230.892 112.453 230.225 109.287 230.225 105.642C230.225 101.979 230.892 98.8382 232.227 96.2178C233.561 93.5973 235.482 91.5872 237.988 90.1875C240.495 88.7878 243.49 88.0879 246.973 88.0879C250.635 88.0879 253.695 88.804 256.152 90.2363C258.61 91.6686 260.417 93.7926 261.572 96.6084L257.153 98.0732C256.356 96.0713 255.07 94.5413 253.296 93.4834C251.538 92.4255 249.447 91.8965 247.021 91.8965C243.213 91.8965 240.251 93.1253 238.135 95.583C236.019 98.0244 234.961 101.377 234.961 105.642C234.961 108.441 235.457 110.899 236.45 113.015C237.459 115.114 238.875 116.75 240.698 117.922C242.537 119.077 244.71 119.655 247.217 119.655ZM294.043 112.917C294.043 114.935 293.571 116.701 292.627 118.215C291.683 119.729 290.324 120.909 288.55 121.755C286.792 122.585 284.676 123 282.202 123H267.92V88.6006H272.583V103.151H281.909C285.75 103.151 288.729 104.006 290.845 105.715C292.977 107.424 294.043 109.825 294.043 112.917ZM303.979 88.6006V123H299.316V88.6006H303.979ZM289.355 112.966C289.355 110.996 288.688 109.491 287.354 108.449C286.019 107.391 284.017 106.862 281.348 106.862H272.583V119.313H281.543C284.212 119.313 286.182 118.76 287.451 117.653C288.721 116.547 289.355 114.984 289.355 112.966ZM334.058 97.8047C334.058 99.6439 333.659 101.206 332.861 102.492C332.08 103.778 330.697 105.153 328.711 106.618L326.758 108.059C324.447 109.719 323.283 111.631 323.267 113.796H318.994C319.043 112.299 319.328 111.037 319.849 110.012C320.386 108.986 321.061 108.116 321.875 107.399C322.689 106.667 323.527 105.992 324.39 105.373C325.317 104.706 326.18 104.047 326.978 103.396C327.775 102.744 328.41 101.996 328.882 101.149C329.37 100.303 329.614 99.2533 329.614 98C329.614 96.1445 328.979 94.6797 327.71 93.6055C326.457 92.5312 324.691 91.9941 322.412 91.9941C320.133 91.9941 318.327 92.5638 316.992 93.7031C315.658 94.8424 314.876 96.4049 314.648 98.3906L310.156 98.0977C310.579 94.875 311.849 92.401 313.965 90.6758C316.081 88.9505 318.88 88.0879 322.363 88.0879C325.993 88.0879 328.849 88.9505 330.933 90.6758C333.016 92.3848 334.058 94.7611 334.058 97.8047ZM323.56 118.093V123H318.799V118.093H323.56Z" fill="white"/>
    <rect y="45" width="5" height="131" fill="white" fill-opacity="0.46"/>
</svg>
