<svg width="50" height="50" viewBox="0 0 50 50" fill="none" xmlns="http://www.w3.org/2000/svg">
<g clip-path="url(#clip0_105_1268)">
<path d="M48.0636 34.4998C48.0782 34.47 48.0912 34.4395 48.1016 34.4083C51.064 27.5711 50.5346 19.1889 46.6871 12.7822C48.7411 10.3267 46.073 6.81025 43.1553 8.17084C42.6425 7.64687 42.1042 7.14468 41.5463 6.66986C42.6414 3.6931 38.9868 1.25116 36.7107 3.47523C30.0953 0.134728 21.8672 0.177033 15.2883 3.58827C12.9479 1.10812 9.01752 3.76735 10.4345 6.87913C9.62297 7.58874 8.85485 8.3553 8.14661 9.16593C7.5351 9.86586 8.64293 10.8252 9.25024 10.1301C9.90914 9.37608 10.623 8.66277 11.3771 8.00172C12.8353 9.05347 14.9496 8.51768 15.7496 6.91225C18.3896 7.67217 20.9107 8.76281 23.2599 10.1626C23.0632 10.8718 23.1435 11.6638 23.481 12.3185C21.5475 13.9887 19.8063 15.8781 18.2942 17.9487C16.8984 17.5269 15.3598 18.2329 14.7528 19.5548C11.6745 19.5713 8.58666 19.9024 5.55499 20.5432C5.28729 20.0444 4.88144 19.631 4.38942 19.3541C4.95901 17.1329 5.86119 15.0199 7.07639 13.0662C7.5606 12.2875 6.33836 11.478 5.83197 12.2921C4.53997 14.3692 3.58035 16.6154 2.97343 18.9767C-0.536967 19.0363 -1.1263 23.8926 2.21557 24.8268C2.16633 31.7384 5.15461 38.4581 10.3365 43.0356C9.25552 45.9556 12.7648 48.3641 15.0808 46.3046C21.8395 49.8985 30.3814 49.899 37.1406 46.3057C39.4961 48.6353 43.2687 46.0328 41.9419 42.9873C44.6126 40.6139 46.6873 37.7109 48.0636 34.4998ZM47.1403 32.861C45.1119 30.8458 42.8922 29.0177 40.5222 27.413C40.8588 26.3587 40.5663 25.1725 39.7803 24.3942C41.7732 21.0807 43.3377 17.5277 44.439 13.8161C44.8059 13.8174 45.1587 13.7497 45.4838 13.6272C48.8583 19.3264 49.4755 26.6745 47.1403 32.861ZM13.4211 41.1445C12.8044 35.1041 13.8866 29.078 16.5648 23.6322C18.2287 24.1514 20.0271 23.0573 20.3502 21.3494C25.4028 21.9722 30.269 23.4556 34.8357 25.7657C34.6161 26.6194 34.7979 27.5608 35.3211 28.271C30.1735 34.7924 23.3787 39.6997 15.6021 42.5122C15.1309 41.7661 14.3384 41.244 13.4211 41.1445ZM36.2076 26.5083C36.2076 25.6779 36.8783 25.0024 37.7026 25.0024C39.6857 25.085 39.6851 27.9319 37.7026 28.0141C36.8783 28.0141 36.2076 27.3386 36.2076 26.5083ZM45.9403 10.8448C45.9403 11.6752 45.2697 12.3507 44.4454 12.3507C42.4622 12.2681 42.4627 9.42122 44.4454 9.33895C45.2697 9.33895 45.9403 10.0145 45.9403 10.8448ZM42.0355 9.12216C41.0227 10.5452 41.4928 12.6023 43.0197 13.4481C41.9529 17.0282 40.4404 20.4554 38.5164 23.6521C38.1142 23.5364 37.6677 23.5077 37.2541 23.571C35.243 19.2765 32.3168 15.4084 28.7421 12.3187C29.0799 11.6637 29.1604 10.873 28.9634 10.1628C31.2261 8.81469 33.6497 7.75229 36.1842 6.99706C37.0266 8.62339 39.2863 9.08259 40.6892 7.86513C41.1542 8.26512 41.6043 8.68533 42.0355 9.12216ZM24.6167 10.9583C24.6167 10.1279 25.2873 9.45239 26.1116 9.45239C28.0948 9.53494 28.0942 12.3818 26.1116 12.464C25.2873 12.464 24.6167 11.7885 24.6167 10.9583ZM38.79 4.08215C39.6144 4.08215 40.285 4.75765 40.285 5.58801C40.2027 7.58571 37.377 7.58522 37.2951 5.58801C37.2951 4.75765 37.9657 4.08215 38.79 4.08215ZM13.1004 7.09378C12.2761 7.09378 11.6055 6.41828 11.6055 5.58792C11.6878 3.59012 14.5135 3.59081 14.5955 5.58792C14.5955 6.41828 13.9248 7.09378 13.1004 7.09378ZM16.0582 5.47556C16.0505 5.27215 16.0226 5.07411 15.9761 4.883C22.1101 1.71094 29.773 1.65564 35.9543 4.73547C35.8749 5.00112 35.8314 5.28201 35.8299 5.57287C33.1641 6.36151 30.6149 7.4755 28.2351 8.8909C27.0912 7.70764 25.1324 7.70725 23.9882 8.8908C21.5082 7.41571 18.8462 6.26909 16.0582 5.47556ZM24.4512 13.4169C25.4421 14.0932 26.7809 14.0933 27.7718 13.417C31.1847 16.3638 33.9805 20.0525 35.9063 24.1486C35.7758 24.2489 35.6539 24.36 35.5417 24.4803C30.7271 22.0382 25.5892 20.4856 20.2524 19.8609C20.1083 19.4247 19.8663 19.0332 19.5523 18.7126C20.9846 16.7669 22.6284 14.9898 24.4512 13.4169ZM17.4423 19.2882C18.2666 19.2882 18.9372 19.9638 18.9372 20.7941C18.8549 22.7919 16.0292 22.7913 15.9473 20.7941C15.9474 19.9638 16.618 19.2882 17.4423 19.2882ZM1.45174 21.9475C1.45174 21.1171 2.12236 20.4416 2.94666 20.4416C4.9298 20.5242 4.92921 23.371 2.94666 23.4532C2.12246 23.4533 1.45174 22.7778 1.45174 21.9475ZM3.68099 24.8262C3.68099 24.8262 5.90671 24.3409 5.90671 21.9668C5.90671 21.9668 11.6179 21.0539 14.4914 21.0219C14.5454 21.7318 14.8485 22.3724 15.3135 22.8558C12.4579 28.6007 11.3061 34.9701 11.9691 41.3527C11.6836 41.4717 11.4208 41.6343 11.1884 41.8321C6.40782 37.5495 3.68099 30.3739 3.68099 24.8262ZM13.1004 45.6038C12.2761 45.6038 11.6055 44.9283 11.6055 44.098C11.6055 43.2676 12.2761 42.5921 13.1004 42.5921C13.9137 42.5921 14.5955 43.2965 14.5955 44.098C14.5955 44.9283 13.9248 45.6038 13.1004 45.6038ZM26.1116 47.5459C22.5552 47.5459 19.0383 46.6941 15.8951 45.077C16.0227 44.7113 16.079 44.2948 16.0541 43.9067C24.0987 41.007 31.1284 35.9395 36.4537 29.2014C36.8912 29.4066 37.3766 29.5008 37.859 29.4754C38.1845 30.6837 38.4418 31.9164 38.6241 33.149C38.7637 34.0926 40.2139 33.8818 40.0739 32.9347C39.8803 31.6258 39.6063 30.3168 39.2584 29.0348C39.4335 28.9258 39.5963 28.7987 39.7446 28.6565C42.1899 30.3166 44.4696 32.2222 46.5349 34.3313C45.2541 37.1628 43.3898 39.7265 41.0213 41.845C40.7871 41.6691 40.5259 41.5277 40.2456 41.427C40.3896 40.0648 40.4524 38.6893 40.4313 37.329C40.4164 36.3717 38.951 36.3941 38.9659 37.3516C38.9863 38.6593 38.9257 39.9814 38.7866 41.2909C37.0583 41.5658 35.928 43.3578 36.4042 45.0373C33.2412 46.68 29.6971 47.5459 26.1116 47.5459ZM39.2514 45.7313C38.4271 45.7313 37.7565 45.0557 37.7565 44.2254C37.8388 42.2276 40.6645 42.2283 40.7464 44.2254C40.7464 45.0557 40.0758 45.7313 39.2514 45.7313Z" fill="#003A7D"/>
</g>
<defs>
<clipPath id="clip0_105_1268">
<rect width="50" height="50" fill="white"/>
</clipPath>
</defs>
</svg>
