<svg width="30" height="30" viewBox="0 0 30 30" fill="none" xmlns="http://www.w3.org/2000/svg">
<path d="M18.8999 5H10.1002C6.73652 5 4 7.73652 4 11.1002V19.8998C4 23.2635 6.73652 26 10.1002 26H18.8998C22.2635 26 25 23.2635 25 19.8999V11.1002C25 7.73652 22.2635 5 18.8999 5ZM23.3594 19.8998C23.3594 22.3588 21.3588 24.3594 18.8999 24.3594H10.1002C7.64116 24.3594 5.64062 22.3588 5.64062 19.8999V11.1002C5.64062 8.64116 7.64116 6.64062 10.1002 6.64062H18.8998C21.3588 6.64062 23.3594 8.64116 23.3594 11.1002V19.8998Z" fill="white"/>
<path d="M14.5 9.83984C11.379 9.83984 8.83984 12.379 8.83984 15.5C8.83984 18.621 11.379 21.1602 14.5 21.1602C17.621 21.1602 20.1602 18.621 20.1602 15.5C20.1602 12.379 17.621 9.83984 14.5 9.83984ZM14.5 19.5195C12.2836 19.5195 10.4805 17.7164 10.4805 15.5C10.4805 13.2836 12.2836 11.4805 14.5 11.4805C16.7164 11.4805 18.5195 13.2836 18.5195 15.5C18.5195 17.7164 16.7164 19.5195 14.5 19.5195Z" fill="white"/>
<path d="M20.2422 10.5781C20.6952 10.5781 21.0625 10.2109 21.0625 9.75781C21.0625 9.30477 20.6952 8.9375 20.2422 8.9375C19.7891 8.9375 19.4219 9.30477 19.4219 9.75781C19.4219 10.2109 19.7891 10.5781 20.2422 10.5781Z" fill="white"/>
</svg>
