<svg width="50" height="50" viewBox="0 0 50 50" fill="none" xmlns="http://www.w3.org/2000/svg">
<g clip-path="url(#clip0_105_1288)">
<path d="M48.2361 40.0252H45.7083C45.7626 39.842 45.7923 39.6483 45.7923 39.4478V37.9569C45.7923 37.319 45.4984 36.7487 45.0393 36.3734C47.3798 35.0443 48.9633 32.5306 48.9633 29.6519V19.2552C48.9633 14.9942 45.4966 11.5275 41.2356 11.5275H34.477V10.5866C34.477 9.32018 33.4467 8.28979 32.1803 8.28979H27.3514V6.324H29.9611C30.833 6.324 31.5424 5.61463 31.5424 4.74274V3.46627C31.5424 2.59438 30.833 1.88501 29.9611 1.88501H29.423C29.0177 1.88501 28.6892 2.21347 28.6892 2.61884C28.6892 3.02421 29.0177 3.35267 29.423 3.35267H29.9611C30.0238 3.35267 30.0747 3.40365 30.0747 3.46627V4.74274C30.0747 4.80546 30.0238 4.85634 29.9611 4.85634H20.1367C20.0741 4.85634 20.0231 4.80536 20.0231 4.74274V3.46627C20.0231 3.40355 20.0741 3.35267 20.1367 3.35267H26.2955C26.7008 3.35267 27.0293 3.02421 27.0293 2.61884C27.0293 2.21347 26.7008 1.88501 26.2955 1.88501H20.1367C19.2648 1.88501 18.5555 2.59438 18.5555 3.46627V4.74274C18.5555 5.61463 19.2648 6.324 20.1367 6.324H22.7465V8.28989H17.8198C16.5534 8.28989 15.523 9.32018 15.523 10.5867V11.5276H8.76449C4.50347 11.5276 1.03695 14.9943 1.03695 19.2553V22.8899C1.03695 23.2953 1.36551 23.6237 1.77078 23.6237C2.17605 23.6237 2.50461 23.2953 2.50461 22.8899V19.2553C2.50461 15.8035 5.31274 12.9953 8.76449 12.9953H9.2495V35.9118H8.76449C5.31274 35.9118 2.50461 33.1036 2.50461 29.6518V26.0171C2.50461 25.6117 2.17605 25.2833 1.77078 25.2833C1.36551 25.2833 1.03695 25.6117 1.03695 26.0171V29.6518C1.03695 32.5547 2.64717 35.0866 5.02028 36.4069C4.58361 36.7822 4.30553 37.3373 4.30553 37.9568V39.4477C4.30553 39.6483 4.33577 39.8419 4.38988 40.0251H1.76393C0.791266 40.0252 0 40.8165 0 41.7892V43.6362C0 44.6087 0.791266 45.4001 1.76393 45.4001H5.00747C5.00522 45.4443 5.00404 45.4888 5.00404 45.5337C5.00404 46.9571 6.16203 48.1151 7.58546 48.1151C9.0089 48.1151 10.1669 46.9571 10.1669 45.5337C10.1669 45.4888 10.1657 45.4443 10.1635 45.4001H11.398C11.3957 45.4443 11.3945 45.4888 11.3945 45.5337C11.3945 46.9571 12.5525 48.1151 13.976 48.1151C15.3994 48.1151 16.5574 46.9571 16.5574 45.5337C16.5574 45.4888 16.5562 45.4443 16.554 45.4001H33.4464C33.4441 45.4443 33.4429 45.4888 33.4429 45.5337C33.4429 46.9571 34.6009 48.1151 36.0244 48.1151C37.4478 48.1151 38.6058 46.9571 38.6058 45.5337C38.6058 45.4888 38.6046 45.4443 38.6023 45.4001H39.8368C39.8346 45.4443 39.8334 45.4888 39.8334 45.5337C39.8334 46.9571 40.9914 48.1151 42.4148 48.1151C43.8383 48.1151 44.9963 46.9571 44.9963 45.5337C44.9963 45.4888 44.9951 45.4443 44.9928 45.4001H48.2364C49.209 45.4001 50.0003 44.6087 50.0003 43.6362V41.7892C50 40.8165 49.2087 40.0252 48.2361 40.0252ZM16.0946 23.8676H10.7172V20.9335H16.0946V23.8676ZM16.0946 25.3353V28.2695H10.7172V25.3353H16.0946ZM16.0946 19.4657H10.7172V16.5317H16.0946V19.4657ZM10.7172 29.7371H16.0946V32.6712H10.7172V29.7371ZM47.4954 19.2552V29.6519C47.4954 33.1036 44.6872 35.9119 41.2354 35.9119H17.5622V12.9952H41.2355C44.6873 12.9952 47.4954 15.8034 47.4954 19.2552ZM24.2142 6.324H25.8836V8.28989H24.2142V6.324ZM16.9907 10.5866C16.9907 10.1295 17.3626 9.75745 17.8199 9.75745H32.1803C32.6374 9.75745 33.0094 10.1295 33.0094 10.5866V11.5275H16.9907V10.5866ZM16.0946 12.9952V15.064H10.7172V12.9952H16.0946ZM10.7172 34.1388H16.0946V35.9118H10.7172V34.1388ZM5.7732 39.4478V37.9569C5.7732 37.6385 6.03229 37.3795 6.35067 37.3795H43.7471C44.0655 37.3795 44.3246 37.6385 44.3246 37.9569V39.4478C44.3246 39.7662 44.0655 40.0252 43.7471 40.0252H6.35077C6.03229 40.0252 5.7732 39.7662 5.7732 39.4478ZM7.58546 46.6474C6.9714 46.6474 6.4717 46.1478 6.4717 45.5337C6.4717 44.9195 6.9713 44.4199 7.58546 44.4199C8.19963 44.4199 8.69922 44.9195 8.69922 45.5337C8.69922 46.1478 8.19953 46.6474 7.58546 46.6474ZM13.9759 46.6474C13.3618 46.6474 12.8621 46.1478 12.8621 45.5337C12.8621 44.9195 13.3617 44.4199 13.9759 44.4199C14.59 44.4199 15.0896 44.9195 15.0896 45.5337C15.0896 46.1478 14.5899 46.6474 13.9759 46.6474ZM36.0242 46.6474C35.4101 46.6474 34.9104 46.1478 34.9104 45.5337C34.9104 44.9195 35.41 44.4199 36.0242 44.4199C36.6383 44.4199 37.1379 44.9195 37.1379 45.5337C37.1379 46.1478 36.6382 46.6474 36.0242 46.6474ZM42.4146 46.6474C41.8005 46.6474 41.3008 46.1478 41.3008 45.5337C41.3008 44.9195 41.8004 44.4199 42.4146 44.4199C43.0287 44.4199 43.5283 44.9195 43.5283 45.5337C43.5283 46.1478 43.0286 46.6474 42.4146 46.6474ZM48.5324 43.6362C48.5324 43.7996 48.3995 43.9324 48.2361 43.9324H44.4371C43.9638 43.336 43.2334 42.9522 42.4146 42.9522C41.5957 42.9522 40.8653 43.3359 40.392 43.9324H38.0467C37.5734 43.336 36.843 42.9522 36.0242 42.9522C35.2053 42.9522 34.4749 43.3359 34.0016 43.9324H15.9984C15.5251 43.336 14.7947 42.9522 13.9759 42.9522C13.157 42.9522 12.4266 43.3359 11.9533 43.9324H9.608C9.13473 43.336 8.40432 42.9522 7.58546 42.9522C6.76661 42.9522 6.0362 43.3359 5.56293 43.9324H1.76393C1.60063 43.9324 1.46766 43.7996 1.46766 43.6362V41.7892C1.46766 41.6259 1.60053 41.493 1.76393 41.493H48.2361C48.3994 41.493 48.5324 41.6259 48.5324 41.7892V43.6362Z" fill="#003A7D"/>
<path d="M30.0714 27.5776C30.0714 29.1851 31.3792 30.4929 32.9866 30.4929C34.594 30.4929 35.9017 29.1851 35.9017 27.5776C35.9017 26.7433 35.2723 25.7043 34.0308 24.4894C33.455 23.926 32.5181 23.9261 31.9422 24.4895C30.7008 25.7042 30.0714 26.7432 30.0714 27.5776ZM32.9688 25.5385C32.9739 25.5334 32.9803 25.5309 32.9867 25.5309C32.993 25.5309 32.9994 25.5334 33.0045 25.5384C33.9921 26.5049 34.4342 27.259 34.4342 27.5776C34.4342 28.3758 33.7848 29.0252 32.9867 29.0252C32.1886 29.0252 31.5392 28.3758 31.5392 27.5776C31.5391 27.259 31.9811 26.5049 32.9688 25.5385Z" fill="#003A7D"/>
<path d="M33.7204 20.378V20.0524C33.7204 19.6471 33.3918 19.3186 32.9866 19.3186C32.5813 19.3186 32.2527 19.6471 32.2527 20.0524V20.378C32.2527 20.7833 32.5813 21.1118 32.9866 21.1118C33.3918 21.1118 33.7204 20.7832 33.7204 20.378Z" fill="#003A7D"/>
<path d="M26.156 30.1306L25.8847 30.2933C25.5372 30.5019 25.4245 30.9526 25.633 31.3001C25.7706 31.5294 26.0136 31.6565 26.2629 31.6565C26.3914 31.6565 26.5215 31.6228 26.6397 31.5519L26.9109 31.3892C27.2585 31.1806 27.3712 30.73 27.1627 30.3824C26.9542 30.0349 26.5034 29.922 26.156 30.1306Z" fill="#003A7D"/>
<path d="M39.4014 31.5519C39.5196 31.6229 39.6497 31.6565 39.7782 31.6565C40.0275 31.6565 40.2705 31.5294 40.4081 31.3001C40.6166 30.9525 40.5039 30.5019 40.1563 30.2933L39.8851 30.1306C39.5375 29.922 39.0868 30.0348 38.8783 30.3823C38.6698 30.7298 38.7825 31.1805 39.13 31.3891L39.4014 31.5519Z" fill="#003A7D"/>
<path d="M23.1717 32.601C23.6524 33.4722 24.5334 33.9924 25.5283 33.9924H40.4448C41.4398 33.9924 42.3208 33.4723 42.8014 32.601C43.2821 31.7299 43.2523 30.7073 42.7218 29.8656L38.4345 23.0643C38.2184 22.7213 37.7653 22.6186 37.4224 22.8347C37.0796 23.0509 36.9769 23.504 37.193 23.8468L41.4802 30.6482C41.7215 31.0309 41.735 31.4959 41.5165 31.892C41.2979 32.2882 40.8974 32.5247 40.4449 32.5247H25.5283C25.0759 32.5247 24.6753 32.2882 24.4567 31.892C24.2382 31.4959 24.2517 31.0309 24.493 30.6482L31.9513 18.8165C32.1801 18.4534 32.5574 18.2452 32.9867 18.2452C33.4159 18.2452 33.7932 18.4534 34.0221 18.8164L35.5242 21.1993C35.7402 21.542 36.1931 21.645 36.5363 21.4288C36.8791 21.2127 36.9818 20.7595 36.7657 20.4167L35.2636 18.0337C34.7677 17.2471 33.9165 16.7776 32.9867 16.7776C32.0569 16.7776 31.2056 17.2471 30.7097 18.0338L23.2515 29.8656C22.7209 30.7073 22.691 31.7299 23.1717 32.601Z" fill="#003A7D"/>
</g>
<defs>
<clipPath id="clip0_105_1288">
<rect width="50" height="50" fill="white"/>
</clipPath>
</defs>
</svg>
