<svg width="30" height="30" viewBox="0 0 30 30" fill="none" xmlns="http://www.w3.org/2000/svg">
<path d="M8.36585 5.99164C9.65158 5.99269 10.712 7.05463 10.7092 8.34677C10.7061 9.69977 9.58333 10.7195 8.35002 10.6901C7.09909 10.7155 5.99975 9.67063 6 8.33784C6 7.04521 7.06453 5.99065 8.36585 5.99164Z" fill="white"/>
<path d="M9.73017 25.534H6.97546C6.61794 25.534 6.32812 25.2442 6.32812 24.8867V13.1349C6.32812 12.7774 6.61794 12.4876 6.97546 12.4876H9.73017C10.0877 12.4876 10.3775 12.7774 10.3775 13.1349V24.8868C10.3774 25.2442 10.0877 25.534 9.73017 25.534Z" fill="white"/>
<path d="M25.5919 16.6152C25.5919 14.1515 23.5947 12.1542 21.131 12.1542H20.4244C19.0766 12.1542 17.8857 12.8268 17.1695 13.8547C17.0914 13.9668 17.0191 14.0831 16.9527 14.2032C16.9297 14.1998 16.9161 14.198 16.9158 14.1986V12.7561C16.9158 12.6077 16.7955 12.4874 16.647 12.4874H13.2102C13.0618 12.4874 12.9414 12.6077 12.9414 12.7561V25.2652C12.9414 25.4136 13.0616 25.5339 13.21 25.534L16.7218 25.5348C16.8702 25.5349 16.9906 25.4145 16.9906 25.2661V18.0392C16.9906 16.79 17.9869 15.7528 19.2361 15.7387C19.8737 15.7315 20.4518 15.987 20.8685 16.4039C21.2797 16.8148 21.5339 17.383 21.5339 18.0103V25.267C21.5339 25.4154 21.6542 25.5357 21.8025 25.5358L25.3229 25.5366C25.4714 25.5367 25.5918 25.4163 25.5918 25.2679V16.6152H25.5919Z" fill="white"/>
</svg>
