<svg width="125" height="38" viewBox="0 0 125 38" fill="none" xmlns="http://www.w3.org/2000/svg">
<path d="M18.6439 22.6309L15.0611 9.00049H10.0469V27.8542H13.8813V22.7514L13.5343 14.895L17.3253 27.8542H19.9365L23.7362 14.895L23.3806 22.7514V27.8542H27.2323V9.00049H22.2181L18.6439 22.6309Z" fill="white"/>
<path d="M33.2524 9.00049H29.418V27.8456H33.2524V9.00049Z" fill="white"/>
<path d="M34.1719 9.00049V12.1758H38.787V27.8542H42.6388V12.1758H47.3407V9.00049H34.1719Z" fill="white"/>
<path d="M51.8604 13.0282C52.0981 12.6553 52.4336 12.3534 52.8308 12.1548C53.2281 11.9563 53.6723 11.8685 54.1159 11.901C54.4585 11.8716 54.8035 11.9147 55.128 12.0275C55.4525 12.1402 55.7492 12.32 55.9984 12.555C56.4955 13.2773 56.7587 14.1328 56.7532 15.0074H60.4835C60.3158 12.8504 59.7085 11.2671 58.6617 10.2574C57.3684 9.16148 55.6907 8.6171 53.9945 8.74291C53.0531 8.68318 52.1106 8.84183 51.2417 9.20629C50.3728 9.57074 49.6015 10.131 48.9889 10.8425C47.8322 12.2423 47.2539 14.2502 47.2539 16.8661V20.2565C47.2886 22.8208 47.9103 24.7742 49.1191 26.1166C49.7676 26.8014 50.5598 27.3367 51.4397 27.6846C52.3196 28.0325 53.2657 28.1846 54.2114 28.1301C55.4153 28.1429 56.6116 27.9388 57.7421 27.5278C58.7798 27.1526 59.7132 26.5393 60.4661 25.7379V17.9934H53.9424V20.8675H56.6317V24.3095L56.2934 24.5418C55.7378 24.8673 55.0989 25.0258 54.4543 24.9979C53.9631 25.0411 53.4691 24.9558 53.0216 24.7504C52.574 24.5451 52.1886 24.2269 51.9038 23.8276C51.2991 22.6756 51.0288 21.3798 51.123 20.0844V16.6424C51.0473 15.3945 51.3015 14.1487 51.8604 13.0282Z" fill="white"/>
<path d="M73.7389 14.698C73.7892 13.9253 73.6754 13.1507 73.4049 12.4244C73.1345 11.6981 72.7133 11.0362 72.1687 10.4815C70.9354 9.42758 69.3342 8.8961 67.7097 9.00141H61.5938V27.8465H65.4282V20.9625H67.3367L70.1908 27.8465H74.3115V27.6658L70.9802 19.9212C72.8194 18.946 73.7389 17.2049 73.7389 14.698ZM69.3493 17.0385C69.1446 17.2958 68.8793 17.4994 68.5768 17.6314C68.2744 17.7634 67.9439 17.8199 67.6143 17.7958H65.4455V12.1767H67.6663C69.1527 12.1767 69.8959 13.1204 69.8959 15.0077C69.9427 15.7258 69.7507 16.4392 69.3493 17.0385Z" fill="white"/>
<path d="M81.3133 8.74267C80.3607 8.69492 79.4099 8.86663 78.5355 9.24434C77.661 9.62206 76.8866 10.1955 76.273 10.9198C74.9796 12.6568 74.3383 14.7872 74.4599 16.9433V20.1702C74.3439 22.2862 75.0136 24.3709 76.3424 26.0303C76.9709 26.7254 77.7481 27.2724 78.6172 27.6312C79.4862 27.99 80.4252 28.1516 81.3653 28.1041C82.3066 28.1521 83.2467 27.9881 84.1151 27.6245C84.9835 27.2609 85.7576 26.707 86.3795 26.0044C87.6758 24.322 88.3165 22.232 88.184 20.1186V16.9003C88.3043 14.7376 87.6464 12.6029 86.3275 10.8767C85.711 10.1654 84.9387 9.60331 84.0696 9.23344C83.2006 8.86356 82.2578 8.6957 81.3133 8.74267ZM84.3149 20.2391C84.3912 21.4686 84.1336 22.6959 83.5688 23.7929C83.3376 24.1682 83.0082 24.4744 82.6156 24.679C82.2231 24.8835 81.782 24.9788 81.3393 24.9546C80.8853 24.9831 80.4321 24.8894 80.0274 24.6834C79.6228 24.4774 79.2817 24.1667 79.0404 23.7843C78.4664 22.6596 78.2087 21.4022 78.2943 20.1444V16.7884C78.2273 15.531 78.4872 14.2776 79.049 13.1485C79.2974 12.7761 79.6358 12.4712 80.0333 12.2617C80.4308 12.0522 80.8749 11.9447 81.325 11.949C81.7752 11.9532 82.2171 12.0692 82.6105 12.2862C83.0039 12.5032 83.3363 12.8144 83.5775 13.1915C84.1396 14.3751 84.3903 15.6806 84.3062 16.9863L84.3149 20.2391Z" fill="white"/>
<path d="M98.377 22.0377C98.4343 22.8157 98.2528 23.5926 97.8565 24.2664C97.6187 24.5186 97.3243 24.7116 96.9972 24.8298C96.6701 24.9479 96.3195 24.9878 95.974 24.9462C95.6264 24.986 95.2743 24.9445 94.9459 24.825C94.6174 24.7054 94.3218 24.5111 94.0828 24.2578C93.6753 23.5663 93.4935 22.7668 93.5623 21.9688V9.00098H89.7018V21.9602C89.6448 22.7905 89.7584 23.6237 90.0358 24.4092C90.3131 25.1946 90.7485 25.916 91.3154 26.5295C92.6432 27.5476 94.274 28.0999 95.9523 28.0999C97.6305 28.0999 99.2613 27.5476 100.589 26.5295C101.153 25.927 101.587 25.2178 101.868 24.4444C102.148 23.671 102.268 22.8495 102.22 22.0291V9.00098H98.377V22.0377Z" fill="white"/>
<path d="M115.024 10.7393C114.438 10.1572 113.735 9.70327 112.961 9.40686C112.187 9.11045 111.359 8.97808 110.53 9.01826H104.059V27.8634H107.893V21.2375H110.452C111.288 21.2858 112.125 21.1684 112.914 20.8921C113.704 20.6158 114.43 20.1862 115.05 19.6283C115.615 19.0522 116.054 18.3665 116.339 17.6143C116.624 16.862 116.749 16.0595 116.707 15.2569C116.742 14.4309 116.612 13.6061 116.323 12.8305C116.034 12.055 115.592 11.3441 115.024 10.7393ZM112.222 17.3394C112.009 17.5844 111.741 17.7766 111.44 17.9007C111.139 18.0247 110.812 18.077 110.487 18.0536H107.884V12.1763H110.556C110.881 12.1737 111.202 12.2509 111.489 12.4011C111.777 12.5512 112.023 12.7696 112.205 13.0368C112.645 13.7015 112.861 14.4882 112.82 15.2828C112.869 16.0166 112.657 16.7442 112.222 17.3394Z" fill="white"/>
<path d="M121.842 0H0V38H125V0H121.842ZM121.842 34.8591H3.16642V3.14085H121.842V34.8591Z" fill="white"/>
</svg>
