<svg width="30" height="30" viewBox="0 0 30 30" fill="none" xmlns="http://www.w3.org/2000/svg">
<path d="M15.9207 2.58484C9.44427 2.58484 6 6.7351 6 11.2605C6 13.3593 7.17271 15.9764 9.04992 16.8065C9.33498 16.935 9.49006 16.8803 9.55357 16.616C9.60969 16.4151 9.85634 15.4477 9.97598 14.9913C10.0129 14.8451 9.9937 14.7181 9.87554 14.5807C9.25227 13.86 8.75748 12.5469 8.75748 11.3152C8.75748 8.15889 11.2668 5.09419 15.5367 5.09419C19.2291 5.09419 21.8123 7.49278 21.8123 10.9238C21.8123 14.8008 19.7608 17.4829 17.0949 17.4829C15.6194 17.4829 14.5206 16.325 14.8691 14.8923C15.2901 13.1865 16.1157 11.3521 16.1157 10.1218C16.1157 9.01848 15.4924 8.10572 14.2193 8.10572C12.7172 8.10572 11.4987 9.59302 11.4987 11.5899C11.4987 12.8586 11.9477 13.7152 11.9477 13.7152C11.9477 13.7152 10.4619 19.7176 10.1857 20.8386C9.71899 22.7365 10.2492 25.81 10.295 26.0744C10.3231 26.2206 10.487 26.2664 10.5786 26.1468C10.7248 25.9548 12.5208 23.3923 13.0244 21.5401C13.2076 20.8652 13.9593 18.1284 13.9593 18.1284C14.4541 19.0219 15.8823 19.7707 17.4036 19.7707C21.929 19.7707 25.199 15.7933 25.199 10.8573C25.1828 6.12511 21.1329 2.58484 15.9207 2.58484Z" fill="white"/>
</svg>
