<svg width="50" height="50" viewBox="0 0 50 50" fill="none" xmlns="http://www.w3.org/2000/svg">
<g clip-path="url(#clip0_105_1263)">
<path d="M34.5552 44.7897V0.776124C34.5552 0.568923 34.4729 0.370209 34.3264 0.223696C34.1799 0.0771832 33.9812 -0.00512695 33.774 -0.00512695H9.31771C9.1098 -0.00476349 8.91051 0.078022 8.76354 0.225082L0.227083 8.81363C0.0815473 8.96009 -9.49004e-05 9.1582 8.27853e-08 9.36467V44.7897C8.27853e-08 44.9969 0.0823101 45.1956 0.228823 45.3421C0.375336 45.4886 0.57405 45.571 0.78125 45.571H33.774C33.9812 45.571 34.1799 45.4886 34.3264 45.3421C34.4729 45.1956 34.5552 44.9969 34.5552 44.7897ZM32.9927 44.0085H1.5625V9.68551L8.54167 2.66988V8.53967H4.07917C3.87197 8.53967 3.67325 8.62198 3.52674 8.7685C3.38023 8.91501 3.29792 9.11372 3.29792 9.32092C3.29792 9.52812 3.38023 9.72684 3.52674 9.87335C3.67325 10.0199 3.87197 10.1022 4.07917 10.1022H9.31771C9.52491 10.1022 9.72363 10.0199 9.87014 9.87335C10.0167 9.72684 10.099 9.52812 10.099 9.32092V1.5605H32.9927V44.0085Z" fill="#003A7D"/>
<path d="M8.54166 21.4229C8.54166 21.6301 8.62397 21.8288 8.77049 21.9753C8.917 22.1218 9.11571 22.2041 9.32291 22.2041H27.3156C27.5228 22.2041 27.7215 22.1218 27.8681 21.9753C28.0146 21.8288 28.0969 21.6301 28.0969 21.4229C28.0969 21.2157 28.0146 21.0169 27.8681 20.8704C27.7215 20.7239 27.5228 20.6416 27.3156 20.6416H9.31771C9.11141 20.643 8.91403 20.7259 8.76864 20.8723C8.62325 21.0186 8.54166 21.2166 8.54166 21.4229Z" fill="#003A7D"/>
<path d="M27.3156 25.0271H18.3167C18.1095 25.0271 17.9108 25.1094 17.7642 25.2559C17.6177 25.4024 17.5354 25.6011 17.5354 25.8083C17.5354 26.0155 17.6177 26.2143 17.7642 26.3608C17.9108 26.5073 18.1095 26.5896 18.3167 26.5896H27.3156C27.5228 26.5896 27.7215 26.5073 27.8681 26.3608C28.0146 26.2143 28.0969 26.0155 28.0969 25.8083C28.0969 25.6011 28.0146 25.4024 27.8681 25.2559C27.7215 25.1094 27.5228 25.0271 27.3156 25.0271Z" fill="#003A7D"/>
<path d="M9.31771 26.5896H15.5406C15.7478 26.5896 15.9465 26.5073 16.0931 26.3608C16.2396 26.2143 16.3219 26.0155 16.3219 25.8083C16.3219 25.6011 16.2396 25.4024 16.0931 25.2559C15.9465 25.1094 15.7478 25.0271 15.5406 25.0271H9.31771C9.11051 25.0271 8.91179 25.1094 8.76528 25.2559C8.61877 25.4024 8.53646 25.6011 8.53646 25.8083C8.53646 26.0155 8.61877 26.2143 8.76528 26.3608C8.91179 26.5073 9.11051 26.5896 9.31771 26.5896Z" fill="#003A7D"/>
<path d="M27.3156 29.4133H9.31771C9.11051 29.4133 8.91179 29.4956 8.76528 29.6422C8.61877 29.7887 8.53646 29.9874 8.53646 30.1946C8.53646 30.4018 8.61877 30.6005 8.76528 30.747C8.91179 30.8935 9.11051 30.9758 9.31771 30.9758H27.3156C27.5228 30.9758 27.7215 30.8935 27.8681 30.747C28.0146 30.6005 28.0969 30.4018 28.0969 30.1946C28.0969 29.9874 28.0146 29.7887 27.8681 29.6422C27.7215 29.4956 27.5228 29.4133 27.3156 29.4133Z" fill="#003A7D"/>
<path d="M27.3156 33.7998H24.4729C24.2657 33.7998 24.067 33.8821 23.9205 34.0286C23.774 34.1751 23.6917 34.3739 23.6917 34.5811C23.6917 34.7883 23.774 34.987 23.9205 35.1335C24.067 35.28 24.2657 35.3623 24.4729 35.3623H27.3156C27.5228 35.3623 27.7215 35.28 27.8681 35.1335C28.0146 34.987 28.0969 34.7883 28.0969 34.5811C28.0969 34.3739 28.0146 34.1751 27.8681 34.0286C27.7215 33.8821 27.5228 33.7998 27.3156 33.7998Z" fill="#003A7D"/>
<path d="M9.31771 35.3623H21.7625C21.9697 35.3623 22.1684 35.28 22.3149 35.1335C22.4615 34.987 22.5438 34.7883 22.5438 34.5811C22.5438 34.3739 22.4615 34.1751 22.3149 34.0286C22.1684 33.8821 21.9697 33.7998 21.7625 33.7998H9.31771C9.11051 33.7998 8.91179 33.8821 8.76528 34.0286C8.61877 34.1751 8.53646 34.3739 8.53646 34.5811C8.53646 34.7883 8.61877 34.987 8.76528 35.1335C8.91179 35.28 9.11051 35.3623 9.31771 35.3623Z" fill="#003A7D"/>
<path d="M27.3156 38.1853H9.31771C9.11051 38.1853 8.91179 38.2676 8.76528 38.4141C8.61877 38.5606 8.53646 38.7594 8.53646 38.9666C8.53646 39.1738 8.61877 39.3725 8.76528 39.519C8.91179 39.6655 9.11051 39.7478 9.31771 39.7478H27.3156C27.5228 39.7478 27.7215 39.6655 27.8681 39.519C28.0146 39.3725 28.0969 39.1738 28.0969 38.9666C28.0969 38.7594 28.0146 38.5606 27.8681 38.4141C27.7215 38.2676 27.5228 38.1853 27.3156 38.1853Z" fill="#003A7D"/>
<path d="M37.9437 4.43115H36.2365C36.0293 4.43115 35.8305 4.51346 35.684 4.65998C35.5375 4.80649 35.4552 5.0052 35.4552 5.2124C35.4552 5.4196 35.5375 5.61832 35.684 5.76483C35.8305 5.91134 36.0293 5.99365 36.2365 5.99365H37.1625V48.4374H5.72917V47.3957C5.72917 47.1885 5.64686 46.9898 5.50035 46.8433C5.35383 46.6968 5.15512 46.6145 4.94792 46.6145C4.74072 46.6145 4.542 46.6968 4.39549 46.8433C4.24898 46.9898 4.16667 47.1885 4.16667 47.3957V49.2155C4.16667 49.4227 4.24898 49.6214 4.39549 49.7679C4.542 49.9145 4.74072 49.9968 4.94792 49.9968H37.9437C38.1509 49.9968 38.3497 49.9145 38.4962 49.7679C38.6427 49.6214 38.725 49.4227 38.725 49.2155V5.20824C38.7239 5.00176 38.6411 4.80411 38.4947 4.6585C38.3483 4.51289 38.1502 4.43115 37.9437 4.43115Z" fill="#003A7D"/>
<path d="M48.1 11.2592H47.2552V10.2613C47.2549 9.50601 46.9552 8.78168 46.4217 8.24705C45.8883 7.71242 45.1646 7.41111 44.4093 7.40918C43.6546 7.41056 42.9311 7.71108 42.3974 8.2449C41.8638 8.77872 41.5636 9.5023 41.5625 10.2571L41.5406 34.8009C41.5406 34.8756 41.5511 34.9499 41.5718 35.0217L43.6343 42.0332C43.6819 42.195 43.7805 42.337 43.9155 42.4381C44.0505 42.5391 44.2147 42.5937 44.3833 42.5936C44.5518 42.5937 44.7158 42.5393 44.8508 42.4385C44.9858 42.3376 45.0846 42.1958 45.1323 42.0342L47.2062 35.0259C47.2283 34.9543 47.2395 34.8799 47.2396 34.805L47.2583 12.8258H48.1042C48.1938 12.8261 48.2796 12.8619 48.3429 12.9254C48.4061 12.9888 48.4417 13.0748 48.4417 13.1644V18.3509C48.4417 18.5581 48.524 18.7568 48.6705 18.9033C48.817 19.0498 49.0157 19.1321 49.2229 19.1321C49.4301 19.1321 49.6288 19.0498 49.7753 18.9033C49.9219 18.7568 50.0042 18.5581 50.0042 18.3509V13.1602C50.004 12.9104 49.9547 12.663 49.8589 12.4322C49.7631 12.2014 49.6228 11.9917 49.446 11.8152C49.2691 11.6386 49.0592 11.4987 48.8283 11.4033C48.5973 11.3079 48.3499 11.2589 48.1 11.2592ZM43.4979 9.34876C43.6171 9.22901 43.7588 9.13404 43.9149 9.06932C44.071 9.0046 44.2383 8.97141 44.4073 8.97168C44.7487 8.97223 45.0759 9.10823 45.3171 9.34982C45.5583 9.59141 45.6937 9.91884 45.6937 10.2602V12.0311V12.0383V12.0456L45.6739 34.0248H43.101L43.1135 19.0467H44.3989C44.6061 19.0467 44.8049 18.9644 44.9514 18.8179C45.0979 18.6714 45.1802 18.4726 45.1802 18.2654C45.1802 18.0582 45.0979 17.8595 44.9514 17.713C44.8049 17.5665 44.6061 17.4842 44.3989 17.4842H43.1135L43.125 10.2581C43.1238 10.0894 43.1562 9.92215 43.2202 9.76604C43.2842 9.60993 43.3786 9.4681 43.4979 9.34876ZM44.3812 39.0519L43.3625 35.5832H45.4083L44.3812 39.0519Z" fill="#003A7D"/>
<path d="M14.3073 12.854C15.1737 14.2859 16.504 15.3783 18.0771 15.9498C18.2329 15.9998 18.4004 15.9998 18.5563 15.9498C20.1292 15.3785 21.4594 14.2865 22.3261 12.855C22.7969 12.0331 23.1188 8.74042 23.2354 7.36333C23.2442 7.25814 23.2317 7.15225 23.1984 7.05204C23.1652 6.95184 23.1121 6.85939 23.0422 6.78026C22.9723 6.70114 22.8872 6.63698 22.7918 6.59164C22.6965 6.5463 22.593 6.52073 22.4875 6.51646C21.753 6.47274 21.0288 6.32257 20.3375 6.07062C19.7865 5.83114 19.2603 5.53806 18.7667 5.19562C18.6349 5.1031 18.4777 5.05347 18.3167 5.05347C18.1556 5.05347 17.9985 5.1031 17.8667 5.19562C17.373 5.53806 16.8469 5.83114 16.2958 6.07062C15.6045 6.32257 14.8803 6.47274 14.1458 6.51646C14.0404 6.52073 13.9368 6.5463 13.8415 6.59164C13.7462 6.63698 13.661 6.70114 13.5911 6.78026C13.5212 6.85939 13.4681 6.95184 13.4349 7.05204C13.4017 7.15225 13.3891 7.25814 13.3979 7.36333C13.5146 8.74042 13.8365 12.0331 14.3073 12.854ZM16.875 7.52271C17.3763 7.31391 17.8586 7.06228 18.3167 6.77062C18.7763 7.06326 19.2604 7.31559 19.7636 7.52479C20.3584 7.75138 20.9769 7.91002 21.6073 7.99771C21.5195 9.37504 21.3061 10.7415 20.9698 12.08C20.3436 13.101 19.4153 13.9019 18.3135 14.3717C17.2116 13.9049 16.2844 13.1031 15.6635 12.08C15.3254 10.7407 15.1113 9.37314 15.024 7.99458C15.6568 7.90758 16.2778 7.74928 16.875 7.52271Z" fill="#003A7D"/>
<path d="M17.8573 11.379C17.9297 11.4517 18.0157 11.5094 18.1105 11.5487C18.2052 11.5881 18.3068 11.6083 18.4094 11.6083C18.512 11.6083 18.6135 11.5881 18.7083 11.5487C18.803 11.5094 18.8891 11.4517 18.9615 11.379L20.6406 9.69983C20.7786 9.55173 20.8538 9.35585 20.8502 9.15345C20.8466 8.95106 20.7646 8.75795 20.6215 8.61481C20.4783 8.47167 20.2852 8.38968 20.0828 8.38611C19.8804 8.38254 19.6846 8.45767 19.5365 8.59567L18.4094 9.72171L18.125 9.43525C18.0535 9.35849 17.9672 9.29693 17.8714 9.25423C17.7756 9.21153 17.6721 9.18857 17.5672 9.18672C17.4623 9.18487 17.3581 9.20416 17.2608 9.24345C17.1636 9.28275 17.0752 9.34123 17.001 9.41542C16.9268 9.4896 16.8683 9.57797 16.829 9.67525C16.7897 9.77253 16.7704 9.87673 16.7723 9.98163C16.7742 10.0865 16.7971 10.19 16.8398 10.2858C16.8825 10.3816 16.9441 10.4679 17.0208 10.5394L17.8573 11.379Z" fill="#003A7D"/>
</g>
<defs>
<clipPath id="clip0_105_1263">
<rect width="50" height="50" fill="white"/>
</clipPath>
</defs>
</svg>
