<svg width="50" height="50" viewBox="0 0 50 50" fill="none" xmlns="http://www.w3.org/2000/svg">
<g clip-path="url(#clip0_105_1278)">
<path d="M49.1667 0.416748H2.49999C2.03978 0.416748 1.66666 0.789873 1.66666 1.25008V9.58341H3.33332V2.08341H9.99999V6.25008C9.99999 6.71029 10.3731 7.08341 10.8333 7.08341H17.5C17.9602 7.08341 18.3333 6.71029 18.3333 6.25008V2.08341H25V9.58341H26.6667V2.08341H33.3333V6.25008C33.3333 6.71029 33.7065 7.08341 34.1667 7.08341H40.8333C41.2935 7.08341 41.6667 6.71029 41.6667 6.25008V2.08341H48.3333V17.0834H34.1667C33.7065 17.0834 33.3333 17.4565 33.3333 17.9167V22.9167C33.3333 23.377 33.7065 23.7501 34.1667 23.7501H40.8333C41.2935 23.7501 41.6667 23.377 41.6667 22.9167V18.7501H48.3333V33.7501H39.1667V35.4167H49.1667C49.6269 35.4167 50 35.0436 50 34.5834V1.25008C50 0.789873 49.6269 0.416748 49.1667 0.416748ZM16.6667 5.41675H11.6667V2.08341H16.6667V5.41675ZM40 5.41675H35V2.08341H40V5.41675ZM40 22.0834H35V18.7501H40V22.0834Z" fill="#003A7D"/>
<path d="M45 13.75H46.6667V15.4167H45V13.75Z" fill="#003A7D"/>
<path d="M41.6667 13.75H43.3333V15.4167H41.6667V13.75Z" fill="#003A7D"/>
<path d="M45 30.4167H46.6667V32.0834H45V30.4167Z" fill="#003A7D"/>
<path d="M41.6667 30.4167H43.3333V32.0834H41.6667V30.4167Z" fill="#003A7D"/>
<path d="M37.5 32.0833C37.4979 30.2432 36.0068 28.7521 34.1667 28.75H31.6667V12.0833C31.6667 11.6231 31.2935 11.25 30.8333 11.25H0.833333C0.373125 11.25 0 11.6231 0 12.0833V48.75C0 49.2102 0.373125 49.5833 0.833333 49.5833H30.8333C31.2935 49.5833 31.6667 49.2102 31.6667 48.75V46.5951L34.4107 49.3393L35.5893 48.1607L30.5893 43.1607C29.0763 41.6442 29.0763 39.1892 30.5893 37.6726C30.9147 37.3472 30.9147 36.8196 30.5893 36.4941L26.8393 32.7441C26.4744 32.3792 26.4744 31.7875 26.8393 31.4226C27.2042 31.0577 27.7958 31.0577 28.1607 31.4226L31.9107 35.1726L33.0893 33.9941L31.6667 32.5716V30.4167H34.1667C35.0867 30.4177 35.8323 31.1633 35.8333 32.0833V39.5833C35.8333 39.8044 35.9211 40.0164 36.0774 40.1726L40.244 44.3393L41.4226 43.1607L37.5 39.2382V32.0833ZM10.8333 12.9167H20.8333V15.8333C20.8333 16.0634 20.6468 16.25 20.4167 16.25H11.25C11.0199 16.25 10.8333 16.0634 10.8333 15.8333V12.9167ZM29.3393 30.2441C28.3279 29.2239 26.6809 29.2167 25.6607 30.2281C24.6405 31.2395 24.6333 32.8865 25.6448 33.9067C25.6501 33.912 25.6554 33.9173 25.6607 33.9226L28.8656 37.1275C27.2437 39.3369 27.4752 42.3988 29.4107 44.3393L30 44.9284V47.9167H1.66667V12.9167H9.16666V14.5833H4.16667C3.70646 14.5833 3.33333 14.9565 3.33333 15.4167V45.4167C3.33333 45.8769 3.70646 46.25 4.16667 46.25H27.5V44.5833H5V16.25H9.20833C9.4076 17.2194 10.2603 17.9155 11.25 17.9167H20.4167C21.4063 17.9155 22.2591 17.2194 22.4583 16.25H26.6667V27.9167H28.3333V15.4167C28.3333 14.9565 27.9602 14.5833 27.5 14.5833H22.5V12.9167H30V30.9049L29.3393 30.2441Z" fill="#003A7D"/>
<path d="M9.16667 24.2383L8.08928 23.1608L6.91074 24.3393L8.5774 26.006C8.90282 26.3314 9.43042 26.3314 9.75594 26.006L13.0893 22.6727L11.9107 21.4941L9.16667 24.2383Z" fill="#003A7D"/>
<path d="M9.16667 30.9051L8.08928 29.8276L6.91074 31.0061L8.5774 32.6728C8.90282 32.9982 9.43042 32.9982 9.75594 32.6728L13.0893 29.3394L11.9107 28.1609L9.16667 30.9051Z" fill="#003A7D"/>
<path d="M9.16667 37.5716L8.08928 36.4941L6.91074 37.6726L8.5774 39.3393C8.90282 39.6647 9.43042 39.6647 9.75594 39.3393L13.0893 36.0059L11.9107 34.8274L9.16667 37.5716Z" fill="#003A7D"/>
<path d="M15 21.25H24.1667V22.9167H15V21.25Z" fill="#003A7D"/>
<path d="M15 24.5835H22.5V26.2502H15V24.5835Z" fill="#003A7D"/>
<path d="M15 27.9167H24.1667V29.5834H15V27.9167Z" fill="#003A7D"/>
<path d="M15 31.25H22.5V32.9167H15V31.25Z" fill="#003A7D"/>
<path d="M15 34.5835H24.1667V36.2502H15V34.5835Z" fill="#003A7D"/>
<path d="M15 37.9167H22.5V39.5834H15V37.9167Z" fill="#003A7D"/>
</g>
<defs>
<clipPath id="clip0_105_1278">
<rect width="50" height="50" fill="white"/>
</clipPath>
</defs>
</svg>
