<svg width="30" height="30" viewBox="0 0 30 30" fill="none" xmlns="http://www.w3.org/2000/svg">
<path d="M23.8153 6.07027L4.0604 13.6851C3.42053 13.9318 3.4593 14.84 4.11796 15.0324L9.1379 16.4987L11.0113 22.3789C11.207 22.9931 11.9939 23.1793 12.4494 22.7192L15.0449 20.0979L20.1374 23.7953C20.7606 24.2478 21.6481 23.9117 21.8064 23.1632L25.1791 7.21269C25.3443 6.43139 24.5672 5.78044 23.8153 6.07027ZM21.3386 9.61008L12.1625 17.6365C12.0711 17.7165 12.0129 17.8272 11.9992 17.9473L11.646 21.0538C11.6344 21.1551 11.4911 21.1685 11.4605 21.0711L10.007 16.4383C9.94041 16.2262 10.0272 15.9964 10.218 15.8793L21.054 9.23164C21.3031 9.07865 21.5583 9.41797 21.3386 9.61008Z" fill="white"/>
</svg>
