<svg width="30" height="30" viewBox="0 0 30 30" fill="none" xmlns="http://www.w3.org/2000/svg">
<path d="M3.60286 21.9915C5.66704 23.2637 8.11561 24 10.7404 24C18.1143 24 24.0919 18.1902 24.0919 11.0246C24.0919 10.8457 24.088 10.6681 24.0809 10.4911C24.3477 10.2871 25.9972 9.00217 26.4016 8.17615C26.4016 8.17615 25.062 8.71717 23.7509 8.84463C23.7483 8.84463 23.7451 8.84522 23.7426 8.84522C23.7426 8.84522 23.7451 8.84396 23.7496 8.84086C23.8704 8.76241 25.5594 7.64511 25.788 6.31384C25.788 6.31384 24.8405 6.80532 23.5139 7.2353C23.2943 7.3062 23.0644 7.37592 22.8273 7.44053C21.9722 6.55359 20.7567 6 19.4074 6C16.8194 6 14.7223 8.03745 14.7223 10.5506C14.7223 10.9053 14.7643 11.2505 14.8437 11.5819C14.482 11.5675 8.97463 11.2674 5.22793 6.85797C5.22793 6.85797 2.9887 9.82879 6.56233 12.8837C6.56233 12.8837 5.476 12.8416 4.53878 12.2974C4.53878 12.2974 4.19455 15.8965 8.24158 16.8167C8.24158 16.8167 7.44524 17.1098 6.17481 16.9008C6.17481 16.9008 6.88527 19.8089 10.4809 20.0807C10.4809 20.0807 7.63764 22.5768 3.60156 21.9911L3.60286 21.9915Z" fill="white"/>
</svg>
