<svg width="30" height="30" viewBox="0 0 30 30" fill="none" xmlns="http://www.w3.org/2000/svg">
<path d="M7.25261 8.81031C8.02314 10.6825 8.99966 12.4476 10.2858 14.0321C10.4564 14.243 10.6714 14.4305 10.898 14.5831C11.2288 14.8067 11.541 14.7281 11.6755 14.3557C11.8178 13.9649 11.9484 13.173 11.9562 12.7626C11.9774 11.6904 11.953 10.9876 11.8944 9.91671C11.8565 9.2308 11.6086 8.62852 10.5832 8.44674C10.2665 8.39038 10.2371 8.13391 10.4405 7.87806C10.8641 7.3454 11.4541 7.26051 12.094 7.22692C13.1311 7.17181 14.1719 7.21678 15.2102 7.22692C15.6332 7.23074 16.0587 7.26426 16.4752 7.35359C17.0185 7.47013 17.3094 7.84509 17.3989 8.36692C17.4453 8.63609 17.4691 8.91283 17.4626 9.1852C17.4356 10.3556 17.3783 11.5254 17.3648 12.6951C17.359 13.1543 17.3931 13.6249 17.4929 14.072C17.6326 14.6952 18.0638 14.8517 18.5048 14.4014C19.0648 13.8295 19.5586 13.186 20.022 12.5324C20.864 11.3437 21.4929 10.039 22.0342 8.69384C22.3143 7.99973 22.5286 7.84898 23.2875 7.8471C24.714 7.84391 26.1405 7.84266 27.5669 7.8471C27.8199 7.84835 28.0845 7.87181 28.3233 7.94657C28.7108 8.06817 28.8647 8.37913 28.7739 8.77373C28.5621 9.69842 28.0542 10.4844 27.5103 11.24C26.6374 12.4521 25.7227 13.6352 24.8293 14.8335C24.7153 14.9861 24.615 15.1489 24.5215 15.3141C24.1874 15.9082 24.2106 16.2413 24.6979 16.7359C25.4736 17.5232 26.304 18.2597 27.0552 19.0685C27.6011 19.6569 28.1064 20.2952 28.539 20.9672C29.0861 21.8171 28.7481 22.6177 27.726 22.7602C27.0829 22.8495 23.9417 22.7608 23.7794 22.7602C22.9349 22.7564 22.1946 22.4682 21.5985 21.9039C20.9355 21.2757 20.3329 20.5866 19.6963 19.9311C19.5045 19.7334 19.2998 19.5441 19.079 19.3788C18.5582 18.988 18.0471 19.0747 17.8038 19.6765C17.5959 20.1933 17.4163 21.5505 17.4079 21.6664C17.3641 22.2725 16.9721 22.6588 16.282 22.6962C14.2897 22.8026 12.3592 22.5841 10.5607 21.636C9.03641 20.8329 7.81918 19.6973 6.76478 18.3731C5.08984 16.2696 3.76686 13.9575 2.55901 11.5775C2.49728 11.4558 1.27391 8.89457 1.24104 8.77359C1.13176 8.36851 1.2337 7.98155 1.58157 7.84835C1.79844 7.76534 5.83193 7.84807 5.89902 7.85161C6.54262 7.8859 6.9815 8.15306 7.25261 8.81031Z" fill="white"/>
</svg>
